<svg id="svg" version="1.1" xmlns="http://www.w3.org/2000/svg" xmlns:xlink="http://www.w3.org/1999/xlink" width="400" height="489.6666666666667" viewBox="0, 0, 400,489.6666666666667"><g id="svgg"><path id="path0" d="M192.333 193.498 C 174.912 196.110,160.357 211.581,158.673 229.276 C 155.044 267.410,200.842 289.194,227.843 262.178 C 255.690 234.313,231.547 187.618,192.333 193.498 M150.268 337.675 C 145.734 338.463,143.886 343.438,146.155 348.750 C 146.392 349.303,144.913 349.336,117.952 349.377 C 102.304 349.402,87.211 349.514,84.413 349.627 L 79.326 349.833 80.802 352.032 L 82.279 354.231 84.856 354.449 C 86.274 354.569,88.183 354.667,89.099 354.667 L 90.764 354.667 90.549 357.217 C 90.430 358.620,90.333 360.492,90.333 361.379 L 90.333 362.990 89.250 362.330 C 87.075 361.004,85.333 361.816,85.333 364.156 C 85.333 365.439,85.646 366.045,88.024 369.366 C 89.503 371.434,90.951 373.584,91.241 374.146 C 91.531 374.707,92.789 376.407,94.037 377.923 C 95.285 379.438,96.453 380.938,96.632 381.256 C 96.923 381.773,97.080 381.714,98.145 380.685 C 99.733 379.150,99.812 379.346,95.847 374.994 C 91.684 370.425,91.780 371.111,94.896 368.232 L 95.907 367.298 96.904 368.137 C 98.408 369.403,100.536 369.863,102.887 369.432 L 104.833 369.074 106.740 370.884 C 110.819 374.757,114.907 375.356,119.583 372.764 L 121.667 371.609 121.667 373.926 L 121.667 376.243 124.250 377.949 L 126.833 379.655 126.921 367.161 L 127.008 354.667 130.171 354.667 L 133.333 354.667 133.342 365.417 L 133.350 376.167 135.925 377.931 L 138.500 379.695 138.705 375.764 C 138.817 373.602,138.930 367.971,138.955 363.250 L 139.000 354.667 142.500 354.667 L 146.000 354.667 146.000 365.455 L 146.000 376.243 148.583 377.949 L 151.167 379.656 151.372 367.911 C 151.485 361.452,151.597 355.829,151.622 355.417 C 151.666 354.678,151.735 354.667,156.167 354.667 L 160.667 354.667 160.667 359.656 C 160.667 363.666,160.580 364.612,160.224 364.476 C 158.455 363.797,157.276 365.776,158.370 367.588 C 161.935 373.493,166.333 375.182,166.333 370.645 L 166.333 369.667 170.500 369.667 L 174.667 369.667 174.667 372.923 L 174.667 376.179 177.250 377.923 C 178.671 378.882,179.946 379.667,180.083 379.667 C 180.221 379.667,180.333 374.042,180.333 367.167 L 180.333 354.667 190.208 354.667 L 200.083 354.667 199.875 355.708 C 199.760 356.281,199.667 357.310,199.667 357.994 L 199.667 359.238 192.917 359.418 C 184.963 359.630,184.863 359.654,185.165 361.297 C 186.141 366.606,192.259 371.571,192.590 367.323 C 192.807 364.538,192.616 364.667,196.506 364.667 L 200.000 364.667 200.000 370.418 L 200.000 376.170 202.583 377.928 L 205.167 379.686 205.254 367.176 L 205.341 354.667 208.504 354.667 L 211.667 354.667 211.667 365.418 L 211.667 376.170 214.250 377.928 L 216.833 379.686 216.921 367.176 L 217.008 354.667 223.004 354.667 L 229.000 354.667 229.000 358.667 C 229.000 362.998,229.032 362.941,227.038 362.143 C 222.027 360.138,221.840 363.437,226.641 369.167 C 227.870 370.633,230.338 373.671,232.126 375.917 C 235.800 380.530,235.607 380.412,236.828 378.811 L 237.735 377.622 236.323 376.414 C 235.546 375.749,233.967 374.006,232.814 372.541 L 230.716 369.876 232.153 368.278 L 233.589 366.681 233.833 360.674 L 234.077 354.667 238.372 354.667 L 242.667 354.667 242.667 365.325 L 242.667 375.984 245.113 377.825 C 246.458 378.838,247.658 379.667,247.780 379.667 C 247.901 379.667,248.000 374.042,248.000 367.167 L 248.000 354.667 254.126 354.667 L 260.252 354.667 260.652 355.631 C 261.642 358.021,260.284 359.411,255.957 360.439 C 253.975 360.909,253.759 362.252,255.174 365.292 C 258.423 372.271,263.630 374.833,269.596 372.389 C 270.565 371.992,271.427 371.667,271.512 371.667 C 271.597 371.667,271.667 372.479,271.667 373.473 C 271.667 374.466,271.761 375.525,271.876 375.825 C 272.060 376.305,276.677 379.667,277.152 379.667 C 277.252 379.667,277.333 374.042,277.333 367.167 L 277.333 354.667 280.462 354.667 L 283.590 354.667 283.827 360.417 C 284.056 365.973,284.096 366.217,285.015 367.667 C 287.449 371.510,290.888 373.494,295.121 373.498 L 297.741 373.500 299.204 371.884 L 300.667 370.269 300.667 365.018 C 300.667 362.130,300.764 358.620,300.882 357.217 L 301.098 354.667 304.382 354.667 L 307.667 354.667 307.670 364.417 C 307.675 376.990,307.502 376.140,310.447 378.081 L 312.833 379.654 313.038 367.577 C 313.150 360.935,313.262 355.313,313.288 355.083 C 313.321 354.781,314.247 354.667,316.667 354.667 C 318.500 354.667,320.000 354.576,320.000 354.466 C 320.000 354.356,319.362 353.232,318.583 351.969 L 317.167 349.672 233.583 349.670 L 150.000 349.667 150.000 347.716 C 150.000 341.223,156.349 340.543,164.667 346.143 C 167.602 348.119,168.379 348.242,168.600 346.762 C 168.751 345.762,167.269 344.220,164.223 342.207 C 158.555 338.461,154.090 337.011,150.268 337.675 M121.445 357.917 C 121.332 359.704,121.212 361.204,121.176 361.249 C 121.141 361.295,120.168 360.478,119.014 359.433 C 114.255 355.127,105.089 357.283,103.832 363.004 C 103.716 363.535,103.368 364.041,103.060 364.127 C 101.684 364.515,98.898 364.708,97.673 364.501 L 96.333 364.275 96.333 359.471 L 96.333 354.667 108.991 354.667 L 121.649 354.667 121.445 357.917 M174.667 359.667 L 174.667 364.667 170.500 364.667 L 166.333 364.667 166.333 359.667 L 166.333 354.667 170.500 354.667 L 174.667 354.667 174.667 359.667 M271.733 359.669 L 271.633 364.671 270.699 365.362 C 266.136 368.736,259.656 369.546,259.672 366.741 C 259.679 365.403,260.007 365.076,262.046 364.375 C 266.489 362.846,266.589 362.642,265.000 358.333 C 263.558 354.423,263.364 354.667,267.917 354.666 L 271.833 354.666 271.733 359.669 M295.332 360.417 C 295.331 367.413,295.116 367.999,292.304 368.674 C 289.451 369.358,289.333 369.059,289.333 361.130 L 289.333 354.667 292.333 354.667 L 295.333 354.667 295.332 360.417 M116.583 362.524 C 118.054 362.830,121.667 364.719,121.667 365.182 C 121.667 366.092,113.401 370.000,111.477 370.000 C 107.380 370.000,108.848 363.324,113.167 362.318 C 114.136 362.092,114.656 362.123,116.583 362.524 M176.108 460.146 C 168.422 462.550,166.403 471.972,172.604 476.498 C 181.582 483.050,194.068 474.918,189.464 465.516 C 187.145 460.781,181.429 458.483,176.108 460.146 " stroke="none" fill="#ec2c34" fill-rule="evenodd"></path><path id="path1" d="M142.161 193.583 C 142.299 217.737,142.524 248.375,142.662 261.667 L 142.912 285.833 143.776 289.833 C 150.309 320.085,178.929 340.080,207.969 334.680 C 230.616 330.469,245.946 318.336,253.134 298.934 C 257.184 288.002,257.000 291.956,257.000 215.650 L 257.000 150.000 253.039 150.000 L 249.078 150.000 248.874 164.083 C 248.761 171.829,248.519 199.317,248.336 225.167 C 247.941 281.012,247.876 284.011,246.949 288.500 C 244.988 297.994,239.530 307.913,233.175 313.532 C 206.186 337.396,165.783 327.496,154.007 294.133 C 151.692 287.574,151.765 288.796,151.180 246.833 C 150.889 225.933,150.505 198.408,150.327 185.667 C 150.149 172.925,150.003 159.612,150.002 156.083 L 150.000 149.667 145.955 149.667 L 141.911 149.667 142.161 193.583 " stroke="none" fill="#fcac2c" fill-rule="evenodd"></path><path id="path2" d="M173.032 7.306 C 172.470 7.662,172.998 10.498,180.361 46.667 C 183.104 60.142,185.308 71.371,185.258 71.621 C 185.208 71.872,184.042 72.521,182.667 73.065 C 177.644 75.052,175.710 77.658,177.175 80.466 C 177.452 80.998,177.638 81.462,177.589 81.497 C 177.540 81.533,175.475 82.500,173.000 83.647 C 161.363 89.039,146.521 98.076,127.024 111.639 C 117.821 118.041,113.601 119.602,103.000 120.525 L 100.500 120.743 99.451 119.282 L 98.403 117.821 99.021 116.661 C 100.433 114.008,99.995 111.815,96.862 105.845 C 95.327 102.918,93.923 100.474,93.743 100.414 C 93.424 100.308,89.655 105.638,87.868 108.726 C 86.570 110.966,86.284 114.526,87.288 115.936 C 88.934 118.248,88.384 118.388,84.743 116.583 C 82.198 115.322,81.581 115.154,79.109 115.049 L 76.333 114.932 76.310 118.216 C 76.278 122.653,76.309 122.603,72.982 123.564 C 65.411 125.750,59.701 129.145,51.943 136.073 L 49.385 138.357 48.555 136.966 L 47.726 135.574 48.407 134.267 C 49.905 131.393,48.763 127.570,44.811 122.224 C 42.276 118.796,42.374 118.820,40.724 121.250 C 37.615 125.830,36.230 129.248,36.463 131.763 C 36.666 133.939,36.621 134.140,35.492 136.160 L 34.308 138.276 29.814 138.088 L 25.321 137.900 25.410 145.700 L 25.500 153.500 33.483 153.928 C 42.846 154.429,41.805 153.972,41.309 157.362 C 40.640 161.937,41.098 167.159,42.496 170.890 L 43.646 173.961 42.468 177.897 C 40.347 184.988,41.750 193.129,45.924 197.946 L 47.167 199.379 48.681 198.704 C 49.514 198.333,50.799 197.933,51.537 197.815 L 52.878 197.601 53.634 200.217 C 54.877 204.518,57.622 208.493,60.938 210.790 C 62.082 211.583,62.280 211.914,62.470 213.345 C 62.637 214.601,62.949 215.245,63.797 216.078 C 64.672 216.936,64.945 217.519,65.088 218.833 C 65.242 220.243,65.472 220.680,66.580 221.667 C 67.300 222.308,67.986 223.221,68.104 223.696 C 68.597 225.676,71.224 227.642,73.402 227.659 C 74.161 227.666,74.328 227.837,74.464 228.750 C 74.553 229.346,74.791 230.958,74.993 232.333 C 75.591 236.393,77.618 239.686,80.999 242.090 L 82.982 243.500 82.991 250.594 C 82.998 255.972,83.101 257.719,83.417 257.816 C 83.646 257.887,84.214 258.027,84.679 258.127 C 85.897 258.391,87.341 265.373,86.511 266.979 C 85.424 269.080,86.040 271.465,88.118 273.206 L 89.265 274.167 88.334 288.333 C 87.822 296.125,87.133 307.337,86.802 313.250 L 86.201 324.000 85.280 324.000 C 84.315 324.000,84.150 323.661,83.490 320.333 C 83.363 319.692,83.037 318.914,82.765 318.605 C 82.375 318.163,82.336 317.733,82.582 316.583 C 82.771 315.694,82.774 314.804,82.588 314.311 C 82.366 313.720,82.438 313.210,82.854 312.429 C 83.928 310.414,82.772 307.205,80.358 305.500 C 75.048 301.751,65.767 307.047,68.473 312.281 C 68.896 313.100,68.937 313.495,68.653 314.026 C 68.451 314.403,68.326 315.371,68.376 316.176 C 68.451 317.393,68.272 317.909,67.318 319.236 C 65.779 321.378,65.727 322.698,65.693 360.083 L 65.667 389.667 64.077 389.667 C 59.234 389.667,56.643 396.766,60.724 398.858 C 61.334 399.170,61.940 399.593,62.071 399.797 C 62.426 400.347,330.417 400.158,335.463 399.604 C 338.651 399.253,339.188 399.102,339.879 398.356 C 343.365 394.597,341.171 389.860,335.667 389.258 L 334.833 389.167 334.619 375.333 C 334.501 367.725,334.388 352.575,334.368 341.667 L 334.330 321.833 333.546 320.167 C 333.114 319.250,332.435 318.210,332.036 317.855 C 331.422 317.309,331.344 316.988,331.527 315.769 C 331.669 314.825,331.602 314.157,331.334 313.834 C 331.007 313.441,331.034 313.068,331.464 311.992 C 332.949 308.281,330.379 304.767,325.671 304.068 C 320.072 303.237,315.745 307.067,317.023 311.722 C 317.510 313.499,317.556 317.823,317.093 318.406 C 316.688 318.916,316.136 320.690,315.846 322.417 C 315.670 323.469,314.233 324.363,313.972 323.583 C 313.957 323.537,313.224 312.343,312.344 298.707 L 310.744 273.915 312.205 272.515 C 313.876 270.914,314.146 269.212,313.132 266.678 C 312.199 264.346,313.857 258.120,315.492 257.813 L 316.567 257.611 316.782 253.389 C 316.900 251.067,317.004 247.817,317.011 246.167 L 317.025 243.167 318.550 242.000 C 322.061 239.314,324.051 235.748,324.934 230.558 L 325.482 227.333 326.832 227.333 C 328.562 227.333,330.313 225.948,331.363 223.750 C 331.780 222.879,332.629 221.717,333.250 221.167 C 334.105 220.411,334.428 219.811,334.573 218.710 C 334.683 217.880,335.227 216.568,335.840 215.657 C 336.431 214.779,337.021 213.492,337.152 212.797 C 337.343 211.778,337.947 211.006,340.278 208.805 C 343.892 205.392,345.213 203.262,345.758 199.971 L 346.167 197.500 348.000 197.534 C 349.152 197.555,350.347 197.829,351.215 198.273 L 352.597 198.978 354.295 196.392 C 358.074 190.636,358.985 184.254,356.979 177.598 L 355.864 173.897 356.746 171.365 C 358.389 166.648,358.571 164.113,357.916 155.017 C 357.808 153.515,358.178 153.433,366.972 153.001 C 370.715 152.817,373.810 152.629,373.849 152.583 C 373.889 152.538,374.030 149.162,374.162 145.083 L 374.403 137.667 369.736 137.667 L 365.069 137.667 363.951 135.923 C 362.893 134.273,362.839 134.045,362.948 131.643 C 363.053 129.331,362.969 128.919,361.996 126.992 C 360.586 124.200,357.361 119.000,357.038 119.000 C 356.797 119.000,354.527 121.718,352.544 124.383 C 350.656 126.920,349.879 131.469,350.968 133.604 C 351.526 134.698,351.549 134.970,351.157 135.841 C 350.205 137.957,350.220 137.958,347.772 135.804 C 342.887 131.509,340.329 129.669,336.000 127.341 C 333.525 126.010,331.307 124.766,331.072 124.577 C 330.836 124.388,328.961 123.824,326.905 123.325 L 323.167 122.418 323.073 118.542 L 322.979 114.667 320.542 114.667 C 317.548 114.667,315.698 115.200,313.245 116.769 C 310.928 118.251,310.551 117.899,311.860 115.479 C 313.395 112.641,312.394 109.297,308.317 103.638 C 305.567 99.820,305.399 99.665,304.898 100.481 C 300.005 108.453,298.648 112.966,300.145 116.285 L 300.731 117.584 299.792 119.003 L 298.853 120.422 295.676 120.236 C 291.931 120.017,282.421 117.726,279.844 116.422 C 278.921 115.956,272.317 111.646,265.167 106.844 C 245.525 93.655,239.361 89.972,228.000 84.638 C 220.351 81.047,221.147 81.589,221.669 80.327 C 222.735 77.755,220.304 74.611,216.177 73.223 C 214.481 72.653,213.113 71.925,212.175 71.095 C 211.391 70.401,210.151 69.354,209.419 68.768 C 207.444 67.187,207.378 66.424,209.148 65.640 C 211.140 64.760,212.969 62.247,213.446 59.738 C 213.741 58.189,212.002 54.637,209.940 52.575 C 208.734 51.369,208.333 50.719,208.333 49.968 C 208.333 49.417,208.111 48.538,207.840 48.013 C 207.371 47.106,207.404 46.963,208.507 45.132 C 209.403 43.643,209.667 42.842,209.667 41.603 L 209.667 40.000 213.273 40.000 C 221.631 40.000,230.449 35.526,232.867 30.059 C 233.924 27.668,233.799 27.624,230.642 29.265 C 226.215 31.566,222.127 31.865,218.516 30.152 C 216.743 29.310,217.037 29.117,220.417 28.902 C 229.236 28.342,235.508 23.968,237.125 17.250 C 237.399 16.114,237.639 16.077,234.172 17.702 C 228.162 20.518,222.635 19.676,208.916 13.855 C 195.272 8.065,189.185 7.088,180.833 9.349 C 176.347 10.563,176.770 10.627,176.504 8.699 L 176.271 7.000 174.885 7.005 C 174.123 7.008,173.290 7.143,173.032 7.306 M194.333 12.374 C 197.953 12.899,201.635 14.148,206.000 16.330 C 214.779 20.720,221.391 22.834,226.279 22.813 C 229.778 22.798,229.789 23.041,226.353 24.398 C 224.074 25.298,218.195 25.385,213.554 24.589 L 210.608 24.083 210.829 25.291 C 211.613 29.582,216.327 33.509,221.554 34.226 C 224.257 34.596,220.815 35.781,215.500 36.309 C 209.673 36.888,207.020 35.874,205.973 32.667 C 205.764 32.025,205.393 31.181,205.149 30.791 C 204.811 30.252,204.778 29.576,205.008 27.958 C 205.470 24.709,204.930 23.165,201.440 17.755 C 200.404 16.148,199.510 14.776,199.455 14.705 C 198.118 13.000,193.134 24.013,193.479 27.908 C 193.643 29.751,193.572 30.549,193.180 31.308 C 192.898 31.854,192.667 32.582,192.667 32.927 C 192.667 33.478,186.509 33.076,185.721 32.473 C 185.660 32.426,185.877 31.212,186.204 29.777 C 187.454 24.293,187.058 20.361,184.741 15.244 C 184.096 13.819,183.672 12.551,183.798 12.424 C 184.456 11.766,189.963 11.739,194.333 12.374 M179.749 14.917 C 182.898 18.221,184.327 27.018,182.258 30.355 L 181.548 31.500 181.320 30.500 C 180.999 29.096,178.434 16.397,178.205 15.083 C 177.967 13.715,178.544 13.652,179.749 14.917 M200.119 22.556 C 202.331 25.307,202.160 27.748,199.694 28.607 C 197.237 29.464,196.109 25.980,197.917 23.119 C 198.990 21.420,199.169 21.374,200.119 22.556 M201.785 31.730 C 202.746 33.263,198.784 34.480,197.276 33.115 C 196.062 32.016,196.510 31.566,199.167 31.219 C 200.781 31.008,201.410 31.131,201.785 31.730 M203.565 37.490 C 207.070 40.491,205.551 44.645,200.521 45.815 C 195.854 46.900,191.387 41.698,194.158 38.405 C 196.238 35.933,201.184 35.452,203.565 37.490 M190.097 36.875 C 190.211 36.989,190.011 37.658,189.652 38.361 C 188.495 40.630,188.883 43.987,190.564 46.251 C 191.311 47.258,191.332 47.389,190.851 48.075 C 190.566 48.482,190.328 49.344,190.322 49.991 C 190.309 51.289,186.492 55.828,186.167 54.931 C 186.082 54.694,185.203 50.487,184.215 45.583 L 182.419 36.667 186.154 36.667 C 188.208 36.667,189.982 36.760,190.097 36.875 M204.000 49.494 C 204.000 50.446,203.745 50.530,199.943 50.825 C 197.221 51.036,194.333 50.540,194.333 49.860 C 194.333 48.861,195.184 48.667,199.567 48.667 L 204.000 48.667 204.000 49.494 M206.201 54.836 C 210.425 56.902,210.203 60.683,205.744 62.602 C 197.150 66.299,185.258 61.053,190.703 55.966 C 193.298 53.542,202.225 52.890,206.201 54.836 M190.022 66.012 C 190.858 66.459,190.837 67.025,189.951 67.975 C 189.147 68.838,188.908 68.628,188.554 66.750 C 188.332 65.569,188.777 65.345,190.022 66.012 M204.973 69.000 L 206.376 71.000 199.338 71.000 C 193.604 71.000,192.350 70.919,192.567 70.561 C 192.713 70.320,193.346 69.420,193.973 68.561 L 195.113 67.000 199.342 67.000 L 203.570 67.000 204.973 69.000 M209.667 75.119 C 216.076 76.617,218.202 77.791,217.554 79.479 C 217.271 80.217,214.250 80.151,210.517 79.326 C 205.857 78.296,192.148 78.378,186.333 79.471 C 182.572 80.179,182.110 80.205,181.583 79.742 C 180.211 78.537,180.848 77.763,184.194 76.566 C 191.636 73.903,201.954 73.317,209.667 75.119 M214.000 83.586 C 224.280 86.282,228.177 88.000,240.500 95.268 C 247.953 99.663,266.158 111.720,270.500 115.136 C 272.368 116.605,266.851 115.374,249.000 110.335 C 226.518 103.990,225.089 103.683,212.667 102.519 C 202.710 101.587,197.539 101.540,188.500 102.300 C 175.287 103.411,173.680 103.762,148.167 111.103 C 139.256 113.667,128.709 116.333,127.479 116.333 C 127.033 116.333,129.226 114.792,145.667 103.553 C 162.432 92.093,179.147 83.948,188.500 82.681 C 190.150 82.458,191.725 82.222,192.000 82.158 C 192.275 82.093,196.175 82.084,200.667 82.136 L 208.833 82.231 214.000 83.586 M210.833 105.687 C 221.617 106.766,232.436 109.143,252.500 114.841 C 275.991 121.513,286.304 123.463,300.337 123.888 C 310.425 124.193,311.181 124.069,312.917 121.827 C 314.597 119.655,316.489 118.338,318.274 118.099 L 319.596 117.922 319.428 124.378 C 319.297 129.415,319.156 130.917,318.785 131.212 C 316.753 132.832,296.575 133.416,284.167 132.214 C 271.182 130.957,267.295 130.272,251.500 126.455 C 206.162 115.499,194.426 115.371,152.667 125.375 C 127.229 131.470,115.908 133.201,100.333 133.378 C 93.647 133.455,80.605 132.491,80.125 131.886 C 80.102 131.857,79.976 128.781,79.845 125.050 L 79.606 118.267 80.720 118.508 C 83.115 119.025,85.170 120.580,87.096 123.333 L 87.679 124.167 96.090 124.155 C 111.820 124.133,127.379 121.090,156.371 112.368 C 177.100 106.132,194.255 104.027,210.833 105.687 M306.303 106.742 C 309.088 111.202,309.008 114.598,306.096 115.480 C 303.218 116.352,302.394 112.796,304.420 108.250 C 305.530 105.759,305.636 105.674,306.303 106.742 M95.895 112.661 C 96.227 115.465,93.686 117.050,91.832 115.195 C 90.252 113.616,90.431 111.430,92.425 107.956 L 93.452 106.167 94.578 108.606 C 95.197 109.947,95.790 111.772,95.895 112.661 M378.500 107.116 C 363.735 112.002,366.990 133.471,382.500 133.494 C 400.317 133.522,400.809 107.270,383.000 106.764 C 381.028 106.708,379.330 106.841,378.500 107.116 M387.536 110.101 C 389.619 111.156,391.742 113.257,392.676 115.186 C 398.587 127.396,381.518 137.661,373.492 126.722 C 366.651 117.401,377.231 104.879,387.536 110.101 M376.667 120.000 L 376.667 127.667 378.500 127.667 L 380.333 127.667 380.333 124.500 L 380.333 121.333 381.336 121.333 C 382.269 121.333,382.446 121.551,383.911 124.500 L 385.484 127.667 387.409 127.667 C 388.467 127.667,389.333 127.614,389.333 127.549 C 389.333 127.484,388.642 125.952,387.797 124.144 C 386.745 121.893,386.391 120.814,386.672 120.720 C 389.116 119.906,390.183 116.060,388.514 114.078 C 387.316 112.654,385.935 112.337,380.917 112.335 L 376.667 112.333 376.667 120.000 M385.000 115.333 C 386.775 117.109,385.239 119.000,382.022 119.000 L 380.333 119.000 380.333 116.833 L 380.333 114.667 382.333 114.667 C 383.889 114.667,384.481 114.815,385.000 115.333 M308.666 119.333 C 309.377 120.482,308.423 121.034,305.901 120.931 C 303.357 120.827,302.724 120.303,303.709 119.116 C 304.264 118.447,308.226 118.620,308.666 119.333 M95.537 119.844 C 96.228 120.897,96.145 120.975,94.056 121.222 C 92.210 121.441,90.333 120.897,90.333 120.143 C 90.333 118.752,94.659 118.503,95.537 119.844 M208.333 122.030 C 221.070 122.818,228.530 124.122,249.000 129.141 C 275.343 135.601,292.141 137.469,310.667 136.001 C 313.508 135.776,316.320 135.646,316.915 135.713 L 317.996 135.833 316.143 138.833 C 310.853 147.398,308.385 156.710,309.174 165.129 C 309.504 168.653,309.262 168.619,314.681 165.886 C 324.095 161.137,334.101 158.114,349.432 155.386 C 352.536 154.833,353.096 154.810,353.503 155.217 C 355.425 157.139,354.931 166.438,352.649 171.306 C 351.431 173.902,351.486 174.930,353.064 179.062 C 354.965 184.040,353.305 194.483,350.713 193.848 C 348.726 193.362,346.348 193.283,344.599 193.646 C 342.527 194.076,342.333 194.419,342.333 197.655 C 342.333 201.863,337.821 207.560,333.292 209.069 C 332.964 209.179,332.966 209.522,333.305 210.732 C 333.824 212.585,333.315 213.616,331.447 214.503 C 330.302 215.046,330.273 215.106,330.482 216.493 C 330.686 217.857,330.633 217.977,329.348 219.077 C 328.360 219.922,328.000 220.484,328.000 221.177 C 328.000 223.332,326.075 224.115,322.802 223.291 C 320.945 222.823,321.014 222.715,321.416 225.456 C 322.288 231.403,319.233 238.129,314.750 240.134 L 313.333 240.768 313.333 247.691 L 313.333 254.614 312.356 254.828 C 310.767 255.177,308.314 266.075,309.458 267.707 C 310.418 269.079,310.168 269.923,308.667 270.373 C 307.394 270.754,307.333 270.834,307.332 272.136 C 307.330 273.761,310.581 323.406,310.852 325.882 L 311.039 327.596 320.686 327.415 L 330.333 327.233 330.361 329.033 C 330.529 339.894,330.857 388.871,330.763 388.986 C 330.454 389.366,186.163 389.914,130.917 389.745 L 69.667 389.558 69.667 358.613 L 69.667 327.667 79.327 327.667 L 88.987 327.667 89.141 326.917 C 89.225 326.504,89.463 323.317,89.669 319.833 C 89.876 316.350,90.634 304.950,91.354 294.500 C 92.074 284.050,92.664 274.574,92.665 273.442 L 92.667 271.383 91.250 270.603 C 89.642 269.718,89.270 268.657,90.206 267.623 C 91.007 266.738,90.861 264.819,89.628 260.000 C 88.283 254.744,88.393 255.000,87.478 255.000 L 86.667 255.000 86.667 248.196 L 86.667 241.393 85.083 240.627 C 80.302 238.316,77.412 232.128,78.268 226.031 C 78.687 223.045,78.748 223.150,76.865 223.624 C 73.388 224.499,71.414 223.686,71.765 221.522 C 71.920 220.568,71.813 220.384,70.780 219.828 C 69.267 219.013,68.916 218.289,69.179 216.531 C 69.379 215.199,69.334 215.072,68.585 214.885 C 66.591 214.384,65.907 213.392,66.140 211.333 L 66.354 209.440 64.094 207.979 C 59.198 204.815,57.503 202.276,57.171 197.609 L 56.942 194.384 54.682 194.003 C 52.991 193.717,51.895 193.717,50.333 194.000 C 47.938 194.434,47.954 194.444,46.994 192.000 C 45.042 187.033,44.969 184.081,46.663 178.473 L 47.992 174.070 47.190 172.618 C 44.574 167.883,43.821 158.529,45.835 155.775 C 47.515 153.478,74.073 160.851,86.411 167.039 C 88.195 167.934,89.807 168.667,89.994 168.667 C 90.208 168.667,90.333 166.919,90.331 163.917 C 90.327 154.137,88.197 147.012,82.844 138.867 C 82.013 137.603,81.333 136.440,81.333 136.284 C 81.333 135.930,82.084 135.941,93.089 136.456 C 112.015 137.341,123.937 135.824,151.667 129.003 C 171.489 124.128,172.505 123.942,191.500 121.710 C 194.099 121.405,200.049 121.518,208.333 122.030 M357.470 125.750 C 359.461 128.829,359.625 131.296,357.908 132.342 C 354.498 134.422,352.754 130.497,355.378 126.648 C 356.653 124.776,356.799 124.714,357.470 125.750 M44.250 127.972 C 45.915 131.178,45.329 133.333,42.794 133.333 C 39.778 133.333,39.297 130.918,41.546 127.064 C 42.592 125.271,42.901 125.375,44.250 127.972 M327.901 127.357 C 333.208 129.182,340.673 133.923,344.036 137.603 L 345.747 139.475 341.457 140.229 C 336.010 141.186,327.982 143.194,321.250 145.283 C 317.298 146.510,316.000 146.797,316.000 146.445 C 316.000 145.275,319.487 139.497,321.455 137.406 C 322.571 136.220,322.923 134.211,322.976 128.712 L 323.000 126.258 324.513 126.484 C 325.345 126.609,326.869 127.002,327.901 127.357 M76.333 131.332 L 76.333 135.664 78.635 138.695 C 80.963 141.761,83.814 146.826,83.499 147.336 C 83.404 147.488,80.741 146.710,77.580 145.606 C 73.289 144.106,69.555 143.114,62.838 141.686 L 53.842 139.773 55.984 137.543 C 60.899 132.424,70.601 127.175,75.417 127.028 L 76.333 127.000 76.333 131.332 M360.489 137.083 L 361.016 137.833 357.617 138.081 C 353.779 138.362,353.701 138.340,354.463 137.177 C 355.259 135.962,359.653 135.893,360.489 137.083 M44.682 137.695 C 45.316 138.880,44.422 139.046,40.222 138.521 C 38.483 138.304,38.383 138.244,38.758 137.644 C 39.380 136.648,44.143 136.689,44.682 137.695 M363.805 142.160 C 362.322 143.120,361.122 143.655,360.440 143.660 C 351.794 143.718,329.985 148.498,318.896 152.765 C 315.836 153.942,313.335 154.739,313.337 154.536 C 313.368 151.457,313.688 151.231,321.833 148.550 C 332.898 144.909,343.676 142.823,359.000 141.359 C 362.575 141.017,365.637 140.722,365.805 140.702 C 365.972 140.683,365.072 141.338,363.805 142.160 M46.901 142.174 C 56.091 143.235,67.942 145.839,77.437 148.884 C 84.846 151.259,85.198 151.445,85.643 153.211 C 86.205 155.444,86.124 155.441,79.807 152.962 C 70.830 149.439,58.867 146.648,45.765 145.019 L 37.724 144.019 35.612 142.648 L 33.500 141.276 38.068 141.479 C 40.580 141.591,44.555 141.904,46.901 142.174 M370.884 143.917 C 370.767 145.154,370.670 146.933,370.669 147.871 L 370.667 149.575 368.083 149.802 C 345.105 151.824,330.486 154.948,317.042 160.709 C 314.956 161.602,313.194 162.333,313.125 162.333 C 313.056 162.333,313.000 161.573,313.000 160.643 L 313.000 158.954 316.750 157.175 C 325.251 153.143,342.115 148.929,357.862 146.900 L 363.890 146.124 365.862 144.610 C 367.769 143.145,370.186 141.712,370.798 141.681 C 370.965 141.673,371.003 142.654,370.884 143.917 M30.100 142.877 C 30.687 143.176,32.155 144.135,33.364 145.009 C 35.868 146.819,36.790 147.069,43.800 147.833 C 59.544 149.548,73.856 153.110,82.917 157.569 L 86.667 159.414 86.667 161.207 C 86.667 163.332,86.877 163.282,84.007 161.837 C 73.615 156.603,53.752 152.144,34.083 150.629 L 28.667 150.211 28.667 146.272 C 28.667 144.106,28.749 142.333,28.850 142.333 C 28.951 142.333,29.513 142.578,30.100 142.877 M326.968 308.260 C 328.215 309.190,328.597 310.798,327.865 312.036 C 327.489 312.673,327.357 313.347,327.489 313.952 C 327.602 314.464,327.532 315.310,327.335 315.830 C 327.017 316.664,327.094 316.922,327.988 318.035 C 328.544 318.727,329.000 319.378,329.000 319.480 C 329.000 319.583,327.125 319.667,324.833 319.667 C 320.352 319.667,320.209 319.595,321.536 318.018 L 322.405 316.985 321.536 316.302 C 320.555 315.531,320.417 314.495,321.183 313.649 C 321.653 313.129,321.623 312.965,320.850 311.826 C 318.682 308.632,323.616 305.757,326.968 308.260 M78.171 308.336 C 79.823 309.357,80.209 310.608,79.331 312.096 C 78.776 313.036,78.700 313.439,78.978 313.959 C 79.514 314.961,79.408 315.829,78.667 316.500 C 77.821 317.265,77.819 318.066,78.659 318.826 C 79.753 319.817,79.146 320.000,74.774 320.000 L 70.586 320.000 71.809 318.508 C 72.865 317.219,72.980 316.918,72.650 316.303 C 72.424 315.880,72.355 315.017,72.481 314.180 C 72.639 313.123,72.564 312.663,72.179 312.344 C 69.459 310.086,75.003 306.378,78.171 308.336 M329.083 322.665 C 330.444 322.666,330.667 322.760,330.667 323.333 C 330.667 323.971,330.446 324.000,325.583 323.995 C 319.755 323.990,319.000 323.866,319.000 322.910 C 319.000 322.250,319.125 322.237,323.250 322.447 C 325.587 322.566,328.212 322.665,329.083 322.665 M80.806 323.214 C 81.148 324.107,80.856 324.162,75.140 324.279 L 69.667 324.391 69.667 323.529 L 69.667 322.667 75.131 322.667 C 79.892 322.667,80.622 322.737,80.806 323.214 M337.267 393.400 C 337.916 394.050,337.733 395.272,336.917 395.738 C 335.596 396.493,65.118 397.110,63.720 396.362 C 62.786 395.862,62.309 394.697,62.717 393.918 C 63.006 393.367,66.331 393.330,123.595 393.250 C 314.538 392.982,336.864 392.997,337.267 393.400 M182.833 417.719 C 180.802 418.755,171.316 424.968,169.515 426.441 L 168.529 427.247 171.295 431.008 C 172.816 433.077,174.128 434.947,174.211 435.162 C 174.294 435.378,172.886 437.567,171.081 440.027 C 162.030 452.369,146.626 474.039,146.723 474.295 C 147.001 475.029,152.526 482.644,152.731 482.576 C 152.858 482.534,155.562 478.825,158.739 474.333 C 169.864 458.610,170.953 457.121,175.812 451.000 C 178.504 447.608,180.810 444.799,180.937 444.757 C 181.063 444.716,182.466 446.666,184.055 449.091 C 185.644 451.516,191.168 459.950,196.331 467.833 C 201.494 475.717,205.820 482.272,205.943 482.400 C 206.066 482.528,208.617 481.075,211.612 479.171 C 214.607 477.267,218.608 474.768,220.504 473.617 C 222.400 472.466,223.857 471.372,223.742 471.185 C 223.626 470.998,219.100 464.841,213.683 457.501 C 206.994 448.439,200.953 439.746,194.857 430.412 C 189.198 421.746,185.687 416.673,185.357 416.683 C 185.069 416.692,183.933 417.158,182.833 417.719 M307.000 417.883 C 286.960 420.892,281.646 431.860,290.819 451.277 C 298.748 468.061,297.833 473.792,286.898 475.843 C 285.350 476.134,285.353 476.153,287.193 478.256 C 288.978 480.297,288.796 480.276,293.882 479.040 C 313.016 474.390,316.361 466.576,308.136 445.733 C 301.334 428.494,301.715 425.485,311.104 422.322 L 313.707 421.444 312.169 419.555 C 310.542 417.558,310.104 417.416,307.000 417.883 M228.912 420.395 L 227.324 421.833 227.650 432.667 C 227.830 438.625,228.063 444.723,228.170 446.218 C 228.276 447.713,228.212 452.813,228.028 457.551 C 227.844 462.290,227.609 468.672,227.507 471.733 L 227.321 477.300 229.309 478.650 L 231.297 480.000 240.519 480.000 L 249.741 480.000 249.550 478.917 C 249.340 477.727,248.168 465.786,247.832 461.417 C 247.666 459.256,247.715 458.666,248.060 458.664 C 248.302 458.662,250.375 458.446,252.667 458.183 C 254.958 457.920,258.258 457.603,260.000 457.478 C 266.743 456.995,275.621 453.010,278.377 449.228 C 285.301 439.730,282.219 427.246,271.667 422.042 C 266.750 419.618,265.154 419.435,246.624 419.180 L 230.500 418.957 228.912 420.395 M87.379 420.770 L 85.925 422.268 86.379 431.717 C 86.912 442.803,86.940 448.878,86.534 465.201 L 86.235 477.235 87.611 478.611 L 88.988 479.988 105.910 479.801 C 123.871 479.604,124.712 479.537,131.333 477.786 C 142.082 474.944,146.946 468.514,145.008 459.709 C 143.765 454.060,137.664 449.548,128.501 447.502 C 127.597 447.300,127.772 447.192,130.353 446.362 C 145.309 441.553,145.916 427.289,131.399 421.776 C 126.024 419.734,124.714 419.613,106.000 419.435 L 88.833 419.272 87.379 420.770 M109.833 424.823 C 118.838 426.286,122.999 429.928,123.000 436.348 C 123.000 441.791,117.811 445.601,108.859 446.732 C 107.115 446.952,105.630 447.065,105.560 446.983 C 105.078 446.418,105.793 424.333,106.293 424.335 C 106.590 424.335,108.183 424.555,109.833 424.823 M251.249 424.997 C 260.089 427.116,265.147 433.978,263.688 441.873 C 262.603 447.740,256.243 452.559,248.417 453.443 L 247.000 453.603 247.001 448.718 C 247.002 434.987,247.426 424.333,247.970 424.336 C 248.262 424.337,249.737 424.635,251.249 424.997 M114.000 452.652 C 123.650 454.748,128.523 460.809,125.475 466.924 C 123.529 470.830,117.299 473.299,107.365 474.100 L 105.564 474.245 105.782 467.736 C 105.902 464.155,106.000 459.055,106.000 456.400 L 106.000 451.575 108.583 451.806 C 110.004 451.933,112.442 452.314,114.000 452.652 " stroke="none" fill="#ffffff" fill-rule="evenodd"></path></g></svg>