<svg xmlns="http://www.w3.org/2000/svg" width="1200" height="1469" viewBox="0 0 1200 1469" version="1.1"><path d="M 578 580.465 C 573.325 581.150, 565.507 582.932, 560.627 584.425 C 555.747 585.918, 547.649 589.418, 542.633 592.204 C 537.617 594.989, 530.134 599.531, 526.006 602.297 C 521.878 605.063, 515.418 610.516, 511.652 614.413 C 507.885 618.311, 502.341 624.771, 499.332 628.768 C 496.323 632.765, 491.847 639.821, 489.387 644.446 C 486.926 649.072, 483.613 656.417, 482.025 660.769 C 480.437 665.120, 478.432 672.402, 477.569 676.951 C 476.618 681.961, 476 690.668, 476 699.038 C 476 706.638, 476.489 716.375, 477.086 720.678 C 477.684 724.980, 480.202 734.125, 482.681 741 C 485.161 747.875, 488.544 755.887, 490.199 758.804 C 491.854 761.722, 495.794 767.572, 498.954 771.804 C 502.114 776.037, 507.579 782.392, 511.100 785.927 C 514.620 789.461, 520.931 794.903, 525.125 798.020 C 529.318 801.136, 537.193 805.949, 542.625 808.716 C 548.056 811.483, 555.214 814.669, 558.531 815.796 C 561.847 816.923, 568.147 818.748, 572.531 819.851 C 576.914 820.955, 582.574 822.156, 585.110 822.521 C 587.645 822.886, 596.420 822.666, 604.610 822.032 C 612.799 821.398, 623.325 819.952, 628 818.820 C 632.675 817.688, 641.042 814.627, 646.593 812.017 C 652.144 809.408, 660.156 804.931, 664.397 802.070 C 668.638 799.208, 675.057 794.194, 678.662 790.927 C 682.267 787.660, 687.788 781.916, 690.931 778.164 C 694.074 774.411, 698.782 767.913, 701.393 763.724 C 704.004 759.535, 707.727 752.371, 709.668 747.804 C 711.608 743.237, 714.316 735.225, 715.685 730 C 717.620 722.612, 718.290 717.054, 718.697 705 C 719.180 690.695, 719.012 688.581, 716.521 677.577 C 715.037 671.019, 712.541 662.178, 710.975 657.931 C 709.409 653.684, 706.347 646.674, 704.171 642.354 C 701.994 638.034, 697.475 630.819, 694.127 626.320 C 690.779 621.821, 684.443 615.026, 680.046 611.220 C 675.649 607.414, 668.985 602.243, 665.238 599.729 C 661.490 597.215, 655.164 593.521, 651.179 591.521 C 647.194 589.522, 641.051 586.800, 637.527 585.474 C 634.003 584.148, 626.635 582.148, 621.153 581.031 C 614.018 579.577, 607.679 579.031, 598.843 579.110 C 592.054 579.170, 582.675 579.780, 578 580.465 M 446.500 1014.573 C 444.850 1015.431, 442.446 1017.115, 441.158 1018.316 C 439.870 1019.517, 438.398 1021.275, 437.887 1022.223 C 437.376 1023.171, 436.535 1026.179, 436.017 1028.909 C 435.328 1032.545, 435.448 1035.293, 436.467 1039.186 C 437.231 1042.109, 438.162 1045.287, 438.536 1046.250 C 439.178 1047.907, 435.308 1048, 365.769 1048 C 325.375 1048, 280.146 1048.296, 265.260 1048.658 C 238.195 1049.317, 238.195 1049.317, 242.652 1056.020 C 247.109 1062.723, 247.109 1062.723, 259.296 1063.436 C 265.998 1063.828, 271.640 1064.307, 271.833 1064.500 C 272.026 1064.693, 271.860 1070.281, 271.464 1076.918 C 270.744 1088.984, 270.744 1088.984, 266.871 1086.807 C 263.114 1084.696, 262.889 1084.683, 259.376 1086.358 C 255.841 1088.043, 255.765 1088.199, 256.228 1092.793 C 256.624 1096.722, 258.049 1099.374, 264.851 1108.838 C 269.333 1115.074, 273 1120.560, 273 1121.030 C 273 1121.500, 276.875 1126.748, 281.612 1132.692 C 286.348 1138.636, 290.529 1143.619, 290.903 1143.764 C 291.276 1143.909, 293.083 1142.477, 294.919 1140.583 C 298.257 1137.139, 298.257 1137.139, 287.629 1125.338 C 281.783 1118.847, 277 1113.172, 277 1112.726 C 277 1112.279, 279.087 1109.684, 281.637 1106.957 C 284.187 1104.231, 286.692 1102, 287.204 1102 C 287.715 1102, 289.566 1103.081, 291.317 1104.403 C 293.068 1105.724, 296.394 1107.365, 298.710 1108.049 C 301.955 1109.007, 304.216 1109.032, 308.580 1108.156 C 314.240 1107.019, 314.240 1107.019, 319.870 1112.173 C 322.967 1115.008, 328.330 1118.654, 331.789 1120.276 C 337.524 1122.965, 338.668 1123.164, 344.789 1122.533 C 349.623 1122.034, 353.258 1120.884, 357.784 1118.420 C 361.241 1116.539, 364.258 1115, 364.489 1115 C 364.720 1115, 365.042 1118.009, 365.204 1121.686 C 365.500 1128.373, 365.500 1128.373, 372.349 1133.254 C 376.116 1135.939, 379.491 1137.843, 379.849 1137.486 C 380.207 1137.128, 380.633 1120.448, 380.797 1100.418 C 381.093 1064, 381.093 1064, 390.547 1064 C 400 1064, 400 1064, 400 1093.375 C 400 1109.531, 400.277 1124.136, 400.616 1125.830 C 401.098 1128.242, 402.836 1130.019, 408.616 1134.015 C 416 1139.120, 416 1139.120, 416.003 1121.810 C 416.004 1112.289, 416.300 1095.388, 416.661 1084.250 C 417.317 1064, 417.317 1064, 427.659 1064 C 438 1064, 438 1064, 438.037 1096.250 C 438.073 1128.500, 438.073 1128.500, 445.787 1133.694 C 453.500 1138.888, 453.500 1138.888, 454.100 1101.694 C 454.429 1081.237, 454.767 1064.388, 454.850 1064.250 C 454.932 1064.112, 461.075 1064, 468.500 1064 C 482 1064, 482 1064, 482 1079 C 482 1094, 482 1094, 478.535 1094 C 476.102 1094, 474.754 1094.591, 474.008 1095.986 C 473.187 1097.519, 473.396 1098.857, 474.925 1101.854 C 476.015 1103.989, 479.284 1108.338, 482.191 1111.518 C 485.097 1114.699, 488.977 1117.928, 490.811 1118.694 C 492.646 1119.461, 495.002 1119.817, 496.047 1119.485 C 497.439 1119.043, 498.122 1117.562, 498.602 1113.941 C 499.258 1109, 499.258 1109, 511.593 1109 C 523.928 1109, 523.928 1109, 524.214 1118.733 C 524.500 1128.467, 524.500 1128.467, 532 1133.636 C 536.125 1136.478, 539.837 1138.597, 540.250 1138.343 C 540.663 1138.089, 541 1121.259, 541 1100.941 C 541 1064, 541 1064, 570.636 1064 C 600.272 1064, 600.272 1064, 599.636 1068.640 C 599.286 1071.191, 599 1074.454, 598.999 1075.890 C 598.998 1078.500, 598.998 1078.500, 578.502 1078.625 C 564.078 1078.713, 557.574 1079.109, 556.546 1079.962 C 555.550 1080.788, 555.277 1082.182, 555.688 1084.337 C 556.020 1086.077, 557.314 1089.525, 558.564 1092 C 559.815 1094.475, 563.237 1098.831, 566.169 1101.680 C 570.624 1106.008, 571.948 1106.770, 574.226 1106.318 C 576.343 1105.897, 577.064 1105.076, 577.456 1102.638 C 577.734 1100.912, 578.082 1098.375, 578.230 1097 C 578.497 1094.526, 578.610 1094.497, 589.226 1094.216 C 599.952 1093.933, 599.952 1093.933, 600.226 1111.203 C 600.500 1128.473, 600.500 1128.473, 608.250 1133.798 C 616 1139.123, 616 1139.123, 616 1101.562 C 616 1064, 616 1064, 625.486 1064 C 634.972 1064, 634.972 1064, 635.236 1096.237 C 635.500 1128.474, 635.500 1128.474, 642.435 1133.237 C 646.249 1135.857, 649.737 1138, 650.185 1138 C 650.633 1138, 651 1121.350, 651 1101 C 651 1064, 651 1064, 669 1064 C 687 1064, 687 1064, 687 1076 C 687 1085.527, 686.716 1088, 685.622 1088 C 684.864 1088, 682.629 1087.325, 680.654 1086.500 C 678.680 1085.675, 675.690 1085, 674.011 1085 C 671.711 1085, 670.671 1085.627, 669.799 1087.541 C 668.836 1089.656, 669.002 1090.825, 670.790 1094.504 C 671.971 1096.936, 674.448 1100.630, 676.294 1102.713 C 678.140 1104.796, 685.241 1113.459, 692.075 1121.964 C 698.909 1130.468, 705.008 1138.094, 705.630 1138.909 C 706.591 1140.171, 707.145 1139.953, 709.348 1137.446 C 710.772 1135.826, 711.950 1134.050, 711.967 1133.500 C 711.983 1132.950, 710.304 1130.907, 708.234 1128.960 C 706.165 1127.013, 701.648 1121.965, 698.198 1117.742 C 691.924 1110.065, 691.924 1110.065, 696.462 1104.493 C 700.856 1099.099, 701 1098.706, 701 1092.117 C 701 1088.374, 701.293 1080.516, 701.652 1074.656 C 702.304 1064, 702.304 1064, 715.152 1064 C 728 1064, 728 1064, 728 1095.905 C 728 1127.811, 728 1127.811, 734.872 1132.905 C 738.652 1135.707, 742.252 1138, 742.872 1138 C 743.689 1138, 744 1127.793, 744 1101 C 744 1064, 744 1064, 762.465 1064 C 779.697 1064, 780.999 1064.129, 781.965 1065.934 C 782.534 1066.998, 782.993 1069.361, 782.985 1071.184 C 782.976 1073.008, 782.597 1075.087, 782.141 1075.805 C 781.686 1076.523, 777.306 1078.406, 772.407 1079.989 C 763.500 1082.866, 763.500 1082.866, 763.533 1087.760 C 763.560 1091.720, 764.406 1094.067, 767.963 1100.055 C 770.381 1104.125, 774.481 1109.576, 777.073 1112.168 C 780.610 1115.706, 783.228 1117.301, 787.560 1118.561 C 791.296 1119.647, 795.031 1120.038, 798.141 1119.670 C 800.785 1119.357, 805.660 1118.005, 808.974 1116.666 C 815 1114.232, 815 1114.232, 815.100 1119.366 C 815.155 1122.190, 815.492 1125.517, 815.850 1126.760 C 816.230 1128.081, 819.615 1131.090, 824 1134.004 C 831.500 1138.988, 831.500 1138.988, 831.762 1101.494 C 832.024 1064, 832.024 1064, 842.012 1064 C 852 1064, 852 1064, 852 1081.055 C 852 1098.110, 852 1098.110, 855.946 1103.921 C 858.116 1107.117, 861.379 1110.988, 863.196 1112.523 C 865.013 1114.059, 868.975 1116.413, 872 1117.755 C 875.025 1119.098, 879.750 1120.416, 882.500 1120.684 C 885.373 1120.965, 889.182 1120.604, 891.454 1119.836 C 894.047 1118.960, 896.543 1117.011, 898.704 1114.172 C 902 1109.845, 902 1109.845, 902.011 1090.672 C 902.017 1080.128, 902.301 1069.813, 902.642 1067.750 C 903.262 1064, 903.262 1064, 913.131 1064 C 923 1064, 923 1064, 923 1090.353 C 923 1104.848, 923.292 1119.501, 923.649 1122.917 C 924.298 1129.128, 924.298 1129.128, 930.129 1133.088 C 933.336 1135.266, 936.644 1137.310, 937.480 1137.631 C 938.822 1138.146, 939.002 1134.129, 939.014 1103.357 C 939.021 1084.186, 939.299 1067.487, 939.630 1066.250 C 940.204 1064.108, 940.709 1064, 950.200 1064 C 955.682 1064, 960.017 1063.662, 959.833 1063.250 C 959.650 1062.838, 957.700 1059.471, 955.500 1055.769 C 951.500 1049.038, 951.500 1049.038, 700.750 1049.019 C 450 1049, 450 1049, 450 1042.535 C 450 1036.779, 450.329 1035.695, 452.995 1032.658 C 454.643 1030.782, 457.338 1028.688, 458.985 1028.006 C 460.731 1027.283, 464.590 1026.933, 468.240 1027.168 C 472.546 1027.444, 476.617 1028.561, 481.283 1030.748 C 485.013 1032.495, 491.450 1036.265, 495.586 1039.124 C 502.566 1043.950, 503.224 1044.205, 504.751 1042.677 C 506.023 1041.405, 506.182 1040.421, 505.449 1038.345 C 504.924 1036.859, 501.470 1033.348, 497.723 1030.492 C 493.995 1027.650, 487.020 1023.268, 482.223 1020.753 C 477.425 1018.238, 471.056 1015.465, 468.068 1014.590 C 465.081 1013.716, 459.681 1013.003, 456.068 1013.006 C 452.077 1013.010, 448.323 1013.624, 446.500 1014.573 M 288 1078.439 C 288 1092.877, 288 1092.877, 292.512 1093.554 C 294.994 1093.926, 300.021 1093.841, 303.684 1093.365 C 310.342 1092.500, 310.342 1092.500, 311.743 1088.285 C 312.664 1085.513, 314.955 1082.414, 318.434 1079.234 C 321.344 1076.575, 325.526 1073.859, 327.728 1073.200 C 329.930 1072.540, 335.517 1072, 340.144 1072 C 346.285 1072, 349.222 1072.444, 351.027 1073.647 C 352.387 1074.552, 355.627 1077.338, 358.227 1079.836 C 360.827 1082.335, 363.130 1084.182, 363.346 1083.940 C 363.561 1083.698, 364.049 1079.112, 364.429 1073.750 C 365.121 1064, 365.121 1064, 326.560 1064 C 288 1064, 288 1064, 288 1078.439 M 498 1079 C 498 1094, 498 1094, 511 1094 C 524 1094, 524 1094, 524 1079 C 524 1064, 524 1064, 511 1064 C 498 1064, 498 1064, 498 1079 M 792 1066.020 C 792 1067.131, 793.114 1070.782, 794.476 1074.133 C 795.838 1077.484, 797.219 1081.652, 797.546 1083.395 C 797.991 1085.766, 797.660 1086.998, 796.228 1088.294 C 795.175 1089.246, 791.225 1091.068, 787.448 1092.341 C 781.599 1094.314, 780.389 1095.132, 779.276 1097.859 C 778.069 1100.817, 778.157 1101.248, 780.439 1103.530 C 782.396 1105.487, 783.930 1106, 787.830 1106 C 791.583 1106, 794.973 1104.944, 802.125 1101.547 C 807.281 1099.098, 812.236 1096.499, 813.136 1095.771 C 814.487 1094.677, 814.836 1091.806, 815.142 1079.223 C 815.514 1064, 815.514 1064, 803.757 1064 C 792.628 1064, 792 1064.108, 792 1066.020 M 868 1083.845 C 868 1102.207, 868.145 1103.821, 869.938 1105.443 C 871.449 1106.811, 872.781 1107.044, 875.995 1106.501 C 878.261 1106.118, 881.327 1104.764, 882.808 1103.491 C 885.500 1101.177, 885.500 1101.177, 885.812 1082.589 C 886.124 1064, 886.124 1064, 877.062 1064 C 868 1064, 868 1064, 868 1083.845 M 337.684 1087.410 C 335.585 1088.180, 332.935 1089.640, 331.796 1090.655 C 330.656 1091.670, 329.111 1093.948, 328.362 1095.718 C 327.613 1097.488, 327 1100.493, 327 1102.396 C 327 1104.300, 327.710 1106.567, 328.578 1107.435 C 329.446 1108.303, 330.908 1109.407, 331.828 1109.888 C 332.859 1110.427, 335.581 1110.223, 338.925 1109.357 C 341.909 1108.584, 348.879 1105.594, 354.414 1102.712 C 360.468 1099.560, 364.612 1096.776, 364.815 1095.723 C 365.068 1094.406, 363.341 1093.126, 357.826 1090.544 C 353.797 1088.658, 348.475 1086.866, 346 1086.562 C 343.269 1086.227, 340 1086.560, 337.684 1087.410 M 526.593 1381.417 C 523.344 1382.785, 519.069 1385.207, 517.093 1386.800 C 515.117 1388.392, 512.150 1391.868, 510.500 1394.523 C 507.812 1398.851, 507.500 1400.191, 507.504 1407.426 C 507.508 1414.464, 507.881 1416.174, 510.415 1420.754 C 512.014 1423.644, 514.832 1427.160, 516.676 1428.566 C 518.520 1429.973, 522.482 1432.247, 525.479 1433.619 C 528.477 1434.991, 532.519 1436.372, 534.463 1436.688 C 536.406 1437.003, 540.788 1436.712, 544.201 1436.040 C 547.614 1435.369, 552.452 1433.858, 554.953 1432.684 C 557.454 1431.509, 561.352 1428.696, 563.617 1426.434 C 566.224 1423.828, 568.378 1420.379, 569.491 1417.028 C 570.457 1414.117, 571.208 1409.733, 571.159 1407.284 C 571.110 1404.835, 569.988 1400.468, 568.665 1397.579 C 567.342 1394.691, 564.694 1390.761, 562.779 1388.846 C 560.865 1386.931, 557.093 1384.069, 554.399 1382.485 C 550.245 1380.043, 548.207 1379.554, 541 1379.267 C 533.721 1378.977, 531.652 1379.286, 526.593 1381.417" stroke="none" fill="#ee2e34" fill-rule="evenodd"/><path d="M 519.750 21.689 C 518.788 21.941, 518 22.712, 518 23.403 C 518 24.094, 524.064 54.774, 531.475 91.580 C 538.887 128.386, 547.606 171.409, 550.852 187.188 C 556.752 215.875, 556.752 215.875, 548.626 219.084 C 542.936 221.331, 539.089 223.650, 535.792 226.818 C 533.202 229.306, 530.814 232.569, 530.485 234.068 C 530.143 235.626, 530.558 238.401, 531.456 240.550 C 532.320 242.616, 532.908 244.399, 532.763 244.512 C 532.618 244.624, 524.625 248.523, 515 253.176 C 505.375 257.828, 490.750 265.479, 482.500 270.178 C 474.250 274.877, 459.834 283.396, 450.465 289.110 C 441.095 294.825, 422.645 306.847, 409.465 315.826 C 396.284 324.805, 379.424 336.318, 371.998 341.411 C 360.940 348.994, 356.777 351.234, 348.998 353.787 C 343.774 355.501, 335.964 357.615, 331.642 358.483 C 327.321 359.351, 319.162 360.567, 313.511 361.184 C 307.861 361.801, 302.606 362.063, 301.834 361.767 C 301.062 361.470, 299.177 359.420, 297.646 357.210 C 294.861 353.192, 294.861 353.192, 296.931 349.136 C 298.273 346.505, 299 343.167, 299 339.637 C 299 334.741, 298.129 332.528, 290.327 317.597 C 285.557 308.469, 281.357 301, 280.995 301 C 280.633 301, 276.229 307.230, 271.209 314.844 C 265.643 323.285, 261.684 330.408, 261.064 333.094 C 260.506 335.517, 260.052 339.075, 260.056 341 C 260.059 342.927, 261.135 346.246, 262.449 348.383 C 263.761 350.519, 264.611 352.849, 264.338 353.562 C 263.980 354.495, 261.284 353.549, 254.693 350.178 C 246.046 345.756, 245.106 345.500, 237.523 345.500 C 229.500 345.500, 229.500 345.500, 229 356.939 C 228.500 368.378, 228.500 368.378, 225 369.225 C 223.075 369.691, 217.900 371.236, 213.500 372.659 C 209.100 374.082, 201.450 377.272, 196.500 379.748 C 191.550 382.224, 184.355 386.279, 180.511 388.760 C 176.667 391.240, 168.033 397.967, 161.325 403.709 C 154.616 409.451, 148.762 414.185, 148.314 414.228 C 147.866 414.271, 146.537 412.607, 145.360 410.531 C 143.220 406.757, 143.220 406.757, 145.222 402.232 C 146.682 398.931, 147.105 396.278, 146.786 392.428 C 146.523 389.256, 145.094 384.624, 143.206 380.824 C 141.477 377.346, 137.352 370.901, 134.038 366.502 C 130.724 362.103, 127.626 358.375, 127.154 358.218 C 126.683 358.061, 124 361.435, 121.193 365.716 C 118.386 369.997, 114.454 377.044, 112.456 381.377 C 109.015 388.836, 108.859 389.619, 109.517 396.170 C 110.154 402.512, 110.004 403.395, 107.706 406.793 C 106.328 408.832, 104.898 411.517, 104.529 412.761 C 103.861 415.011, 103.792 415.019, 89.929 414.357 C 76 413.692, 76 413.692, 76 436.827 C 76 459.962, 76 459.962, 78.250 460.397 C 79.487 460.637, 90.371 461.329, 102.435 461.935 C 114.499 462.541, 124.562 463.228, 124.796 463.463 C 125.031 463.697, 124.668 467.794, 123.990 472.567 C 123.184 478.250, 123.007 485.084, 123.479 492.366 C 124.069 501.459, 124.827 505.161, 127.637 512.661 C 131.073 521.835, 131.073 521.835, 127.451 534.467 C 124.068 546.263, 123.876 547.674, 124.537 555.799 C 124.926 560.585, 126.079 567.791, 127.098 571.814 C 128.117 575.837, 130.333 581.687, 132.023 584.814 C 133.712 587.941, 136.550 592.205, 138.330 594.290 C 141.566 598.079, 141.566 598.079, 146.076 596.085 C 148.556 594.988, 152.420 593.797, 154.663 593.438 C 158.740 592.786, 158.740 592.786, 160.967 600.118 C 162.192 604.150, 164.240 609.514, 165.519 612.037 C 166.797 614.560, 169.887 619.134, 172.386 622.201 C 174.884 625.268, 179.143 629.403, 181.851 631.391 C 186.155 634.550, 186.860 635.579, 187.460 639.580 C 187.938 642.770, 189.184 645.305, 191.573 647.949 C 193.667 650.267, 195 652.778, 195 654.403 C 195 655.867, 195.656 658.635, 196.458 660.555 C 197.261 662.475, 199.255 664.813, 200.890 665.752 C 202.814 666.856, 204.064 668.528, 204.432 670.490 C 204.745 672.157, 206.148 674.758, 207.549 676.269 C 208.951 677.781, 211.142 679.702, 212.419 680.539 C 213.696 681.375, 216.711 682.396, 219.120 682.806 C 223.500 683.552, 223.500 683.552, 224.179 690.396 C 224.552 694.160, 225.403 699.548, 226.069 702.370 C 226.793 705.435, 229.300 710.437, 232.297 714.796 C 235.614 719.620, 239.294 723.481, 243.157 726.191 C 249 730.290, 249 730.290, 249 751.626 C 249 772.962, 249 772.962, 251.750 773.564 C 253.262 773.896, 254.996 774.315, 255.603 774.496 C 256.209 774.676, 257.728 780.028, 258.978 786.388 C 261.117 797.271, 261.155 798.154, 259.625 801.377 C 258.731 803.261, 258 806.256, 258 808.033 C 258 809.810, 258.879 812.667, 259.953 814.382 C 261.027 816.097, 263.293 818.400, 264.990 819.500 C 267.998 821.450, 268.061 821.649, 267.525 827.500 C 267.223 830.800, 266.304 844.075, 265.483 857 C 264.661 869.925, 262.868 899.400, 261.498 922.500 C 260.128 945.600, 259.005 966.216, 259.004 968.313 C 259 972.006, 258.898 972.117, 255.781 971.813 C 252.658 971.509, 252.513 971.284, 250.929 964.281 C 250.031 960.310, 248.843 956.485, 248.290 955.781 C 247.737 955.076, 247.364 950.900, 247.462 946.500 C 247.559 942.100, 248.211 937.440, 248.911 936.145 C 249.704 934.676, 249.932 932.417, 249.517 930.145 C 249.151 928.140, 247.766 924.631, 246.440 922.347 C 244.727 919.396, 242.520 917.441, 238.818 915.597 C 235.247 913.817, 231.995 913, 228.485 913 C 225.668 913, 221.088 913.676, 218.308 914.501 C 214.687 915.576, 212.091 917.262, 209.160 920.442 C 206.909 922.884, 204.778 926.036, 204.424 927.447 C 204.070 928.859, 204.066 931.540, 204.416 933.406 C 204.766 935.272, 205.726 937.358, 206.549 938.041 C 207.873 939.139, 207.857 939.570, 206.409 941.780 C 205.247 943.553, 204.908 945.687, 205.239 949.138 C 205.569 952.566, 205.291 954.344, 204.296 955.170 C 203.520 955.814, 201.696 958.370, 200.242 960.850 C 197.600 965.359, 197.600 965.359, 197.173 1067.179 C 196.746 1169, 196.746 1169, 192.823 1169 C 190.666 1169, 187.627 1169.659, 186.069 1170.464 C 184.512 1171.269, 182.098 1173.283, 180.705 1174.939 C 179.312 1176.594, 177.639 1179.565, 176.987 1181.540 C 176.335 1183.515, 176.077 1186.597, 176.413 1188.390 C 176.750 1190.183, 178.257 1192.772, 179.762 1194.143 C 181.268 1195.514, 183.850 1197.505, 185.500 1198.568 C 188.455 1200.471, 194.650 1200.495, 594 1200.162 C 916.295 1199.894, 1001.292 1199.563, 1008.234 1198.548 C 1013.038 1197.846, 1017.676 1196.684, 1018.542 1195.965 C 1019.407 1195.247, 1021.192 1192.823, 1022.507 1190.578 C 1024.606 1186.996, 1024.779 1185.964, 1023.921 1182.143 C 1023.383 1179.749, 1022.273 1176.495, 1021.454 1174.912 C 1020.636 1173.329, 1018.600 1171.327, 1016.929 1170.463 C 1015.259 1169.600, 1011.739 1168.638, 1009.108 1168.326 C 1004.323 1167.760, 1004.323 1167.760, 1003.724 1120.630 C 1003.394 1094.708, 1002.867 1048.838, 1002.553 1018.695 C 1002.105 975.782, 1001.687 963.198, 1000.623 960.695 C 999.876 958.938, 998.035 956.190, 996.531 954.588 C 994.174 952.080, 993.884 951.128, 994.430 947.712 C 994.865 944.994, 994.602 943.042, 993.595 941.505 C 992.298 939.525, 992.307 939.006, 993.678 937.050 C 994.788 935.464, 995.111 933.207, 994.814 929.102 C 994.534 925.240, 993.654 922.323, 992.115 920.162 C 990.859 918.398, 988.182 916.113, 986.165 915.084 C 984.149 914.056, 979.574 912.768, 975.999 912.223 C 970.429 911.373, 968.761 911.507, 964.328 913.159 C 961.158 914.339, 957.780 916.608, 955.603 919.018 C 953.649 921.180, 951.759 924.110, 951.403 925.529 C 951.047 926.948, 951.049 930.447, 951.407 933.304 C 951.766 936.162, 952.115 941.876, 952.183 946.002 C 952.270 951.231, 951.806 954.475, 950.652 956.706 C 949.742 958.466, 948.654 962.290, 948.235 965.203 C 947.510 970.240, 947.326 970.500, 944.500 970.500 C 941.529 970.500, 941.529 970.500, 937.368 904.500 C 935.080 868.200, 932.915 834.419, 932.557 829.432 C 931.910 820.412, 931.920 820.358, 934.455 819.202 C 935.857 818.563, 937.902 816.569, 938.999 814.770 C 940.095 812.972, 940.996 810.150, 941.001 808.500 C 941.006 806.850, 940.264 803.419, 939.353 800.876 C 937.765 796.445, 937.790 795.839, 939.963 786.376 C 941.211 780.944, 942.645 775.712, 943.151 774.750 C 943.700 773.706, 945.223 773, 946.930 773 C 949.790 773, 949.790 773, 950.521 751.049 C 951.251 729.098, 951.251 729.098, 957.001 724.580 C 960.164 722.096, 964.225 717.767, 966.026 714.960 C 967.827 712.154, 970.309 707.077, 971.543 703.679 C 972.776 700.280, 974.372 694.012, 975.088 689.750 C 976.390 682, 976.390 682, 979.963 682 C 982.090 682, 984.970 681.025, 987.080 679.592 C 989.185 678.161, 991.946 674.702, 993.883 671.068 C 995.676 667.705, 998.202 664.259, 999.496 663.410 C 1000.791 662.562, 1002.334 660.481, 1002.925 658.785 C 1003.516 657.089, 1004 654.488, 1004 653.006 C 1004 651.523, 1004.946 649.454, 1006.102 648.407 C 1007.259 647.361, 1008.780 645.379, 1009.484 644.002 C 1010.188 642.626, 1011.063 639.694, 1011.430 637.486 C 1011.939 634.418, 1012.912 632.914, 1015.564 631.096 C 1017.472 629.789, 1021.683 625.887, 1024.922 622.424 C 1028.161 618.961, 1032.181 613.287, 1033.855 609.814 C 1035.529 606.341, 1037.199 600.913, 1037.565 597.750 C 1038.230 592, 1038.230 592, 1042.578 592 C 1044.969 592, 1049.448 592.944, 1052.531 594.098 C 1055.615 595.251, 1058.234 596.039, 1058.352 595.848 C 1058.470 595.656, 1060.603 592.350, 1063.091 588.500 C 1065.580 584.650, 1068.885 577.900, 1070.435 573.500 C 1072.594 567.374, 1073.371 563.040, 1073.752 555 C 1074.209 545.339, 1073.999 543.667, 1071.124 534.075 C 1069.406 528.342, 1068 522.889, 1068 521.958 C 1068 521.027, 1069.412 516.043, 1071.139 510.882 C 1073.837 502.816, 1074.341 499.677, 1074.730 488.500 C 1075.042 479.511, 1074.743 473.417, 1073.761 468.750 C 1072.341 462, 1072.341 462, 1075.920 460.975 C 1077.889 460.411, 1088.949 459.474, 1100.498 458.893 C 1112.047 458.313, 1121.551 457.761, 1121.619 457.669 C 1121.687 457.576, 1122.059 447.488, 1122.447 435.250 C 1123.153 413, 1123.153 413, 1109.103 413 C 1095.053 413, 1095.053 413, 1091.627 407.913 C 1088.292 402.960, 1088.215 402.622, 1088.729 395.124 C 1089.186 388.452, 1088.953 386.828, 1086.983 382.962 C 1085.733 380.508, 1081.807 373.662, 1078.258 367.750 C 1074.709 361.837, 1071.503 357, 1071.133 357 C 1070.763 357, 1067.004 361.424, 1062.780 366.832 C 1056.306 375.120, 1054.779 377.824, 1053.050 384.061 C 1051.923 388.131, 1051 392.499, 1051 393.770 C 1051 395.040, 1051.941 397.923, 1053.090 400.177 C 1055.117 404.149, 1055.127 404.391, 1053.436 408.143 C 1052.476 410.271, 1051.162 412.451, 1050.515 412.987 C 1049.698 413.665, 1048.448 413.023, 1046.420 410.884 C 1044.814 409.190, 1038.679 403.774, 1032.788 398.849 C 1024.906 392.260, 1017.904 387.619, 1006.288 381.285 C 993.371 374.242, 988.590 372.195, 980 370.028 C 969.500 367.380, 969.500 367.380, 969 355.940 C 968.500 344.500, 968.500 344.500, 963 344.168 C 959.975 343.986, 955.240 344.333, 952.477 344.939 C 949.715 345.546, 944.540 347.801, 940.977 349.951 C 937.010 352.346, 934.136 353.504, 933.561 352.941 C 932.978 352.371, 933.659 349.834, 935.352 346.261 C 937.841 341.010, 937.993 340.038, 937.072 335.279 C 936.517 332.407, 934.871 327.682, 933.414 324.779 C 931.958 321.875, 927.626 315.113, 923.788 309.750 C 919.951 304.388, 916.516 300.005, 916.155 300.011 C 915.795 300.016, 912.702 305.079, 909.282 311.261 C 905.862 317.442, 902.149 325.158, 901.032 328.407 C 899.914 331.655, 899 336.709, 899 339.636 C 899 342.564, 899.728 346.779, 900.618 349.003 C 902.209 352.980, 902.191 353.113, 899.512 357.161 C 896.789 361.276, 896.789 361.276, 886.644 360.728 C 879.486 360.341, 871.892 358.994, 860.846 356.153 C 852.237 353.938, 842.373 350.703, 838.927 348.963 C 835.481 347.223, 813.725 333.115, 790.580 317.610 C 767.436 302.106, 741.090 284.981, 732.033 279.556 C 722.976 274.131, 710.376 267.092, 704.033 263.914 C 697.690 260.736, 685.879 254.993, 677.786 251.151 C 663.071 244.165, 663.071 244.165, 664.613 241.074 C 665.585 239.126, 665.914 236.886, 665.504 235.018 C 665.146 233.387, 662.914 229.896, 660.545 227.261 C 657.017 223.337, 654.974 222.063, 649.259 220.223 C 644.015 218.534, 640.251 216.344, 634.113 211.410 C 629.620 207.800, 625.229 203.753, 624.354 202.418 C 623.074 200.464, 623.006 199.698, 624.004 198.495 C 624.687 197.673, 625.849 197, 626.588 197 C 627.326 197, 629.504 195.619, 631.427 193.930 C 633.350 192.242, 635.816 189.416, 636.907 187.650 C 637.998 185.885, 639.318 182.541, 639.839 180.220 C 640.686 176.451, 640.440 175.275, 637.539 169.221 C 635.665 165.312, 632.330 160.549, 629.661 157.971 C 626.412 154.832, 625.028 152.691, 625.017 150.784 C 625.007 149.290, 624.257 146.510, 623.349 144.606 C 621.714 141.177, 621.730 141.096, 625.026 135.959 C 627.424 132.222, 628.479 129.268, 628.801 125.386 C 629.248 120, 629.248 120, 639.464 120 C 646.283 120, 652.189 119.358, 657.225 118.070 C 661.375 117.009, 668.534 114.441, 673.135 112.362 C 679.015 109.707, 683.579 106.686, 688.500 102.195 C 692.350 98.680, 696.230 94.386, 697.123 92.653 C 698.016 90.919, 699.058 88.487, 699.440 87.250 C 699.971 85.532, 699.736 85, 698.448 85 C 697.521 85, 694.228 86.511, 691.131 88.358 C 688.034 90.205, 682.698 92.289, 679.273 92.990 C 675.357 93.791, 670.718 94.003, 666.773 93.560 C 663.323 93.174, 658.646 92.040, 656.379 91.042 C 654.113 90.043, 651.948 88.726, 651.570 88.113 C 651.093 87.342, 652.756 87, 656.983 87 C 660.339 87, 666.511 86.292, 670.700 85.427 C 674.889 84.562, 681.732 82.505, 685.908 80.856 C 690.487 79.047, 695.012 76.398, 697.310 74.179 C 699.406 72.155, 702.649 68.202, 704.518 65.394 C 706.387 62.586, 708.850 57.917, 709.993 55.018 C 711.922 50.124, 711.943 49.789, 710.285 50.311 C 709.303 50.621, 704.468 52.540, 699.540 54.576 C 690.693 58.231, 690.454 58.270, 680.540 57.673 C 674.717 57.322, 666.510 55.986, 661 54.492 C 655.775 53.076, 646.100 49.717, 639.500 47.027 C 632.900 44.337, 621.425 39.651, 614 36.613 C 606.575 33.575, 596.450 29.843, 591.500 28.320 C 583.211 25.769, 581.275 25.559, 567 25.659 C 554.243 25.749, 550.084 26.164, 543.500 28.002 C 539.100 29.231, 534.284 30.456, 532.799 30.725 C 530.216 31.191, 530.067 30.987, 529.420 26.106 C 528.742 21.001, 528.742 21, 525.121 21.116 C 523.130 21.180, 520.712 21.438, 519.750 21.689 M 557 35.666 C 555.625 35.883, 553.501 36.277, 552.280 36.541 C 550.061 37.023, 550.061 37.023, 553.387 44.321 C 555.216 48.336, 557.545 54.068, 558.562 57.060 C 559.888 60.959, 560.386 65.191, 560.322 72 C 560.273 77.225, 559.505 84.792, 558.616 88.815 C 557.727 92.839, 557 96.479, 557 96.904 C 557 97.330, 560.938 98.236, 565.750 98.918 C 570.563 99.600, 575.288 100.377, 576.250 100.646 C 577.453 100.982, 578.002 100.566, 578.006 99.317 C 578.010 98.318, 578.725 96.150, 579.597 94.500 C 580.834 92.158, 581.042 89.853, 580.543 83.993 C 579.947 76.976, 580.134 75.919, 583.421 67.765 C 585.355 62.968, 587.830 57.293, 588.921 55.155 C 590.012 53.017, 592.091 49.857, 593.541 48.134 C 594.991 46.410, 596.757 45, 597.465 45 C 598.174 45, 601.783 49.798, 605.486 55.663 C 609.190 61.528, 613.039 68.708, 614.041 71.619 C 615.553 76.014, 615.704 78.028, 614.930 83.493 C 614.114 89.251, 614.248 90.566, 615.999 93.998 C 617.099 96.155, 618 98.436, 618 99.066 C 618 99.697, 619.322 101.882, 620.938 103.922 C 623.485 107.138, 624.733 107.789, 630.314 108.818 C 635.059 109.692, 639.478 109.732, 647.126 108.969 C 652.832 108.399, 659.840 107.267, 662.699 106.454 C 665.559 105.640, 668.138 104.586, 668.431 104.112 C 668.724 103.638, 667.059 102.949, 664.732 102.581 C 662.404 102.214, 657.059 100.544, 652.853 98.871 C 646.300 96.264, 644.548 95.018, 640.606 90.164 C 638.076 87.049, 635.386 83.150, 634.628 81.500 C 633.870 79.850, 632.944 77.198, 632.570 75.606 C 631.890 72.712, 631.890 72.712, 637.195 73.378 C 640.113 73.745, 645.650 74.470, 649.500 74.990 C 653.350 75.509, 659.111 75.949, 662.303 75.967 C 665.494 75.985, 671.132 75.311, 674.832 74.470 C 678.532 73.628, 683.336 71.868, 685.508 70.557 C 689.456 68.174, 689.456 68.174, 679.478 68.248 C 672.301 68.302, 667.383 67.742, 661.957 66.255 C 657.808 65.118, 649.933 62.514, 644.457 60.468 C 638.981 58.423, 627.525 53.400, 619 49.307 C 610.475 45.214, 599.450 40.764, 594.500 39.419 C 589.550 38.074, 580.325 36.536, 574 36.002 C 567.675 35.468, 561.825 35.086, 561 35.152 C 560.175 35.218, 558.375 35.450, 557 35.666 M 534.558 45.750 C 534.915 47.813, 536.746 57.150, 538.626 66.500 C 540.507 75.850, 542.625 85.975, 543.335 89 C 544.624 94.500, 544.624 94.500, 546.783 91.033 C 547.971 89.125, 549.253 85.525, 549.632 83.033 C 550.012 80.540, 549.795 74.225, 549.151 69 C 548.320 62.253, 547.120 57.737, 545.010 53.417 C 543.376 50.072, 540.927 46.134, 539.567 44.667 C 538.208 43.200, 536.379 42, 535.502 42 C 534.213 42, 534.033 42.714, 534.558 45.750 M 593.368 69.501 C 590.005 74.566, 589.787 75.330, 590.608 79.148 C 591.172 81.769, 592.466 84.014, 594.125 85.249 C 596.353 86.908, 597.110 87.018, 599.125 85.974 C 600.431 85.297, 602.288 84.056, 603.250 83.217 C 604.397 82.216, 605 80.242, 605 77.489 C 605 74.217, 604.216 72.260, 601.454 68.644 C 599.504 66.090, 597.709 64, 597.464 64 C 597.220 64, 595.377 66.475, 593.368 69.501 M 595 93.878 C 591.373 94.379, 590.440 94.923, 590.189 96.682 C 589.982 98.138, 590.648 99.279, 592.189 100.108 C 593.460 100.792, 596.259 101.250, 598.409 101.126 C 600.559 101.002, 603.173 100.442, 604.219 99.883 C 605.515 99.189, 606.021 98.012, 605.810 96.183 C 605.554 93.971, 604.973 93.479, 602.500 93.378 C 600.850 93.311, 597.475 93.536, 595 93.878 M 587.411 110.891 C 585.713 111.927, 583.350 114.011, 582.161 115.522 C 580.601 117.505, 580 119.660, 580 123.267 C 580 127.745, 580.389 128.631, 583.746 131.797 C 585.807 133.740, 589.386 136.168, 591.700 137.191 C 595.347 138.805, 596.544 138.896, 600.703 137.880 C 603.341 137.235, 606.625 136.139, 608 135.443 C 609.375 134.748, 611.849 132.760, 613.498 131.026 C 615.970 128.426, 616.467 127.112, 616.329 123.542 C 616.236 121.161, 615.461 117.858, 614.605 116.202 C 613.749 114.547, 611.522 112.250, 609.656 111.097 C 606.961 109.431, 604.644 109.001, 598.382 109.004 C 592.427 109.007, 589.745 109.468, 587.411 110.891 M 547.360 111.750 C 547.631 112.713, 550.200 125.200, 553.067 139.500 C 555.934 153.800, 558.441 165.686, 558.637 165.914 C 558.834 166.141, 561.695 163.444, 564.997 159.920 C 569.993 154.588, 571 152.921, 571 149.979 C 571 148.035, 571.677 145.478, 572.505 144.297 C 573.894 142.313, 573.764 141.753, 570.796 136.979 C 568.300 132.963, 567.494 130.418, 567.186 125.572 C 566.872 120.654, 567.234 118.462, 568.894 115.207 C 570.052 112.937, 571 110.837, 571 110.540 C 571 110.243, 565.570 110, 558.933 110 C 547.918 110, 546.908 110.153, 547.360 111.750 M 584.200 147.200 C 583.540 147.860, 583 148.968, 583 149.661 C 583 150.355, 584.688 151.373, 586.750 151.923 C 588.813 152.473, 592.075 152.936, 594 152.952 C 595.925 152.968, 600.524 152.639, 604.220 152.221 C 607.916 151.802, 611.419 150.981, 612.003 150.397 C 612.587 149.813, 612.778 148.584, 612.426 147.667 C 611.873 146.228, 609.986 146, 598.593 146 C 589.665 146, 585.012 146.388, 584.200 147.200 M 583.500 162.334 C 580.750 163.053, 577.018 164.419, 575.206 165.369 C 573.394 166.320, 571.033 168.538, 569.960 170.299 C 568.886 172.059, 568.006 174.902, 568.004 176.615 C 568.002 178.328, 568.943 180.929, 570.095 182.393 C 571.247 183.858, 573.841 185.899, 575.860 186.929 C 577.880 187.959, 583.219 189.594, 587.725 190.562 C 594.710 192.063, 597.067 192.155, 603.709 191.187 C 607.994 190.562, 613.235 189.555, 615.355 188.949 C 617.475 188.344, 621.187 186.025, 623.605 183.797 C 627.202 180.480, 628 179.105, 628 176.217 C 628 173.944, 627.060 171.457, 625.358 169.226 C 623.906 167.321, 620.726 164.882, 618.293 163.805 C 614.891 162.301, 610.938 161.754, 601.185 161.438 C 592.704 161.163, 586.843 161.460, 583.500 162.334 M 565.527 200.320 C 565.900 202.619, 566.641 204.950, 567.174 205.500 C 567.813 206.160, 568.798 205.697, 570.071 204.139 C 571.132 202.841, 572 201.004, 572 200.057 C 572 198.954, 570.715 197.941, 568.424 197.238 C 564.848 196.141, 564.848 196.141, 565.527 200.320 M 580.943 206.578 C 578.676 209.645, 577.021 212.355, 577.265 212.598 C 577.509 212.842, 587.027 212.920, 598.417 212.771 C 619.127 212.500, 619.127 212.500, 615.008 206.750 C 610.890 201, 610.890 201, 597.977 201 C 585.063 201, 585.063 201, 580.943 206.578 M 582 222.682 C 580.075 222.880, 574 223.975, 568.500 225.114 C 563 226.253, 555.013 228.526, 550.750 230.165 C 544.282 232.652, 543 233.515, 543 235.382 C 543 236.611, 543.580 238.411, 544.290 239.382 C 545.515 241.057, 546.251 241.017, 559.009 238.573 C 571.230 236.232, 574.691 236.001, 597.469 236.015 C 616.272 236.026, 624.096 236.406, 628.916 237.542 C 632.445 238.374, 638.307 239.476, 641.943 239.992 C 645.579 240.508, 649.578 240.662, 650.830 240.334 C 652.664 239.855, 653.048 239.151, 652.804 236.718 C 652.620 234.887, 651.515 232.984, 650 231.885 C 648.625 230.889, 643.590 228.954, 638.811 227.587 C 634.032 226.219, 625.424 224.403, 619.683 223.550 C 613.941 222.698, 603.901 222.072, 597.372 222.160 C 590.842 222.248, 583.925 222.483, 582 222.682 M 570 247.020 C 566.425 247.500, 560.353 248.649, 556.507 249.572 C 552.661 250.495, 544.111 253.278, 537.507 255.756 C 530.903 258.234, 519.425 263.031, 512 266.417 C 504.575 269.803, 490.444 277.209, 480.598 282.876 C 470.752 288.543, 453.427 299.406, 442.098 307.015 C 430.769 314.625, 413.822 326.172, 404.438 332.676 C 395.054 339.179, 386.054 345.533, 384.438 346.796 C 381.500 349.091, 381.500 349.091, 386 348.440 C 388.475 348.082, 399.275 345.597, 410 342.918 C 420.725 340.239, 441.875 334.415, 457 329.976 C 472.125 325.537, 492.150 319.935, 501.500 317.527 C 510.850 315.120, 523.450 312.241, 529.500 311.130 C 535.550 310.019, 552.200 308.135, 566.500 306.944 C 585.693 305.346, 596.034 304.947, 606 305.422 C 613.425 305.776, 624.900 306.513, 631.500 307.061 C 638.100 307.609, 650.925 308.967, 660 310.079 C 670.374 311.351, 682.811 313.725, 693.500 316.473 C 702.850 318.878, 728.950 326.060, 751.500 332.435 C 774.050 338.809, 794.975 344.470, 798 345.014 C 801.025 345.559, 806.114 346.389, 809.308 346.860 C 812.503 347.331, 814.753 347.393, 814.308 346.998 C 813.864 346.603, 806.750 341.576, 798.500 335.827 C 790.250 330.079, 775.625 319.972, 766 313.368 C 756.375 306.765, 736.350 294.209, 721.500 285.466 C 706.650 276.724, 689.775 267.461, 684 264.882 C 678.225 262.304, 668.564 258.544, 662.531 256.529 C 656.498 254.513, 646.148 251.485, 639.531 249.800 C 627.886 246.834, 626.681 246.726, 602 246.442 C 587.975 246.280, 573.575 246.540, 570 247.020 M 566.500 316.571 C 559.350 317.359, 543.917 319.609, 532.204 321.572 C 520.491 323.536, 504.291 326.925, 496.204 329.104 C 488.117 331.282, 476.550 334.598, 470.500 336.472 C 464.450 338.346, 450.725 342.399, 440 345.480 C 429.275 348.560, 410.600 353.513, 398.500 356.487 C 386.400 359.460, 370.650 363.018, 363.500 364.392 C 356.350 365.766, 344.200 367.802, 336.500 368.917 C 328.800 370.031, 317.100 371.466, 310.500 372.107 C 303.399 372.796, 291.361 373.044, 281.016 372.714 C 263.531 372.157, 263.531 372.157, 261.204 369.328 C 259.924 367.773, 257.085 364.604, 254.895 362.287 C 252.117 359.349, 249.267 357.556, 245.469 356.359 C 242.474 355.415, 239.741 354.926, 239.394 355.272 C 239.048 355.619, 239.094 364.898, 239.496 375.893 C 240.228 395.885, 240.228 395.885, 245.864 396.534 C 248.964 396.891, 258.250 398.023, 266.500 399.050 C 278.615 400.557, 285.635 400.816, 303 400.392 C 317.061 400.049, 333.669 398.831, 351 396.870 C 365.575 395.221, 386.500 392.104, 397.500 389.943 C 408.500 387.782, 432.575 382.394, 451 377.971 C 469.425 373.547, 492.375 368.171, 502 366.023 C 511.625 363.875, 524.825 361.195, 531.333 360.067 C 537.840 358.939, 550.215 357.339, 558.833 356.512 C 567.958 355.635, 584.730 355.010, 599 355.015 C 616.029 355.020, 629.142 355.609, 642 356.944 C 652.175 358.001, 668.825 360.505, 679 362.508 C 689.175 364.511, 706.275 368.168, 717 370.634 C 727.725 373.100, 744.600 377.151, 754.500 379.637 C 764.400 382.122, 780.825 385.885, 791 388 C 801.175 390.115, 815.125 392.553, 822 393.418 C 828.875 394.283, 841.475 395.676, 850 396.513 C 858.525 397.351, 876.975 398.311, 891 398.646 C 906.791 399.024, 921.640 398.828, 930 398.132 C 937.425 397.513, 946.603 396.341, 950.395 395.526 C 954.187 394.711, 957.387 393.922, 957.506 393.772 C 957.625 393.622, 957.996 384.613, 958.331 373.750 C 958.938 354, 958.938 354, 956.219 354.022 C 954.724 354.034, 951.700 354.866, 949.500 355.871 C 947.300 356.876, 943.687 359.679, 941.472 362.099 C 939.257 364.520, 936.660 367.625, 935.703 369 C 933.961 371.500, 933.961 371.500, 909.231 371.460 C 889.869 371.429, 880.552 370.933, 866.317 369.177 C 856.316 367.944, 841.241 365.414, 832.817 363.555 C 824.393 361.697, 814.575 359.652, 811 359.011 C 807.425 358.370, 784.025 351.984, 759 344.820 C 733.975 337.655, 705.850 330.073, 696.500 327.969 C 687.150 325.866, 672.975 322.996, 665 321.593 C 657.025 320.189, 644.875 318.385, 638 317.584 C 631.125 316.782, 615.150 315.904, 602.500 315.633 C 586.224 315.283, 575.699 315.558, 566.500 316.571 M 912.943 325.117 C 910.468 330.235, 909.500 333.601, 909.500 337.095 C 909.500 341.040, 910.008 342.462, 912.197 344.651 C 914.764 347.218, 915.093 347.289, 919.024 346.111 C 922.327 345.121, 923.460 344.144, 924.675 341.235 C 925.935 338.220, 925.988 336.902, 924.984 333.548 C 924.318 331.322, 922.468 326.913, 920.872 323.750 C 919.277 320.587, 917.615 318, 917.179 318 C 916.743 318, 914.837 321.203, 912.943 325.117 M 277.364 323.213 C 275.875 325.571, 274.059 329.484, 273.328 331.909 C 272.598 334.334, 272 337.631, 272 339.236 C 272 341.128, 273.028 343.182, 274.923 345.077 C 276.668 346.821, 278.903 348, 280.469 348 C 281.919 348, 284.187 346.904, 285.545 345.545 C 287.237 343.854, 288 341.978, 288 339.513 C 288 337.545, 286.621 332.358, 284.934 327.986 C 283.248 323.614, 281.465 319.787, 280.970 319.482 C 280.476 319.176, 278.853 320.855, 277.364 323.213 M 1136.734 321.025 C 1134.663 321.548, 1131.265 322.845, 1129.182 323.907 C 1127.100 324.970, 1123.064 327.935, 1120.214 330.498 C 1116.647 333.705, 1113.858 337.532, 1111.266 342.777 C 1107.666 350.059, 1107.500 350.841, 1107.500 360.448 C 1107.500 369.678, 1107.761 371.051, 1110.693 377.241 C 1112.574 381.211, 1115.968 386.064, 1118.952 389.048 C 1121.963 392.058, 1126.723 395.379, 1130.683 397.232 C 1135.773 399.614, 1139.157 400.456, 1145.008 400.794 C 1150.383 401.105, 1154.436 400.730, 1158.585 399.538 C 1161.838 398.602, 1166.525 396.547, 1169 394.969 C 1171.475 393.392, 1175.390 390.166, 1177.699 387.801 C 1180.009 385.435, 1183.159 380.800, 1184.699 377.500 C 1187.234 372.071, 1187.500 370.453, 1187.500 360.500 C 1187.500 350.643, 1187.220 348.902, 1184.804 343.747 C 1183.321 340.583, 1179.755 335.506, 1176.878 332.464 C 1173.495 328.887, 1169.340 325.833, 1165.116 323.817 C 1159.572 321.171, 1157.218 320.652, 1149.542 320.388 C 1144.569 320.216, 1138.806 320.503, 1136.734 321.025 M 1141.132 327.049 C 1138.729 327.537, 1134.836 328.869, 1132.479 330.010 C 1130.123 331.151, 1126.168 334.251, 1123.690 336.900 C 1121.213 339.549, 1118.131 343.692, 1116.843 346.108 C 1114.835 349.873, 1114.500 351.928, 1114.501 360.500 C 1114.501 369.396, 1114.795 371.056, 1117.161 375.540 C 1118.624 378.312, 1121.920 382.515, 1124.485 384.880 C 1127.051 387.244, 1131.704 390.358, 1134.825 391.798 C 1139.312 393.868, 1141.987 394.407, 1147.604 394.371 C 1153.378 394.334, 1155.934 393.752, 1161.255 391.261 C 1164.856 389.576, 1169.693 386.307, 1172.003 383.997 C 1174.314 381.686, 1177.396 377.254, 1178.852 374.148 C 1181.040 369.481, 1181.494 367.111, 1181.465 360.500 C 1181.436 353.914, 1180.940 351.440, 1178.658 346.500 C 1176.971 342.850, 1173.926 338.659, 1170.881 335.799 C 1168.019 333.110, 1163.656 330.271, 1160.688 329.167 C 1157.835 328.106, 1153.250 326.995, 1150.500 326.699 C 1147.750 326.403, 1143.534 326.561, 1141.132 327.049 M 1131 359.904 C 1131 383, 1131 383, 1136 383 C 1141 383, 1141 383, 1141 373.500 C 1141 364, 1141 364, 1144.274 364 C 1147.412 364, 1147.745 364.395, 1152.268 373.500 C 1156.987 383, 1156.987 383, 1162.493 383 C 1165.522 383, 1168 382.767, 1168 382.482 C 1168 382.197, 1165.780 377.541, 1163.068 372.135 C 1158.135 362.306, 1158.135 362.306, 1161.623 360.643 C 1163.852 359.580, 1165.632 357.732, 1166.555 355.522 C 1167.350 353.620, 1168 350.902, 1168 349.482 C 1168 348.062, 1167.317 345.581, 1166.483 343.967 C 1165.649 342.354, 1163.511 340.249, 1161.733 339.289 C 1159.228 337.938, 1155.404 337.462, 1144.750 337.177 C 1131 336.808, 1131 336.808, 1131 359.904 M 1141 349.885 C 1141 357, 1141 357, 1146.250 356.985 C 1149.138 356.977, 1152.625 356.404, 1154 355.712 C 1155.866 354.773, 1156.578 353.524, 1156.807 350.787 C 1157.052 347.858, 1156.649 346.823, 1154.807 345.641 C 1153.538 344.827, 1149.912 343.848, 1146.750 343.465 C 1141 342.770, 1141 342.770, 1141 349.885 M 911.040 357.452 C 910.377 358.251, 909.991 359.713, 910.181 360.702 C 910.477 362.239, 911.599 362.500, 917.905 362.500 C 923.946 362.500, 925.483 362.173, 926.391 360.691 C 927.279 359.243, 927.113 358.596, 925.559 357.441 C 924.403 356.583, 921.319 356, 917.931 356 C 914.180 356, 911.835 356.494, 911.040 357.452 M 272.200 358.200 C 271.540 358.860, 271 359.969, 271 360.665 C 271 361.360, 271.963 362.445, 273.140 363.075 C 274.358 363.727, 277.796 364.038, 281.119 363.798 C 284.330 363.565, 287.209 363.124, 287.516 362.817 C 287.824 362.510, 287.536 361.075, 286.877 359.629 C 285.773 357.206, 285.198 357, 279.539 357 C 276.098 357, 272.873 357.527, 272.200 358.200 M 573.500 365.072 C 569.650 365.565, 553.900 367.590, 538.500 369.571 C 511.489 373.046, 508.503 373.663, 454 387.026 C 422.925 394.645, 391.425 401.788, 384 402.899 C 376.575 404.010, 362.400 405.849, 352.500 406.986 C 342.600 408.123, 327.066 409.333, 317.980 409.675 C 308.894 410.016, 288.504 409.732, 272.669 409.042 C 256.834 408.353, 243.683 407.984, 243.444 408.222 C 243.206 408.461, 245.504 412.446, 248.551 417.077 C 251.598 421.709, 256.272 429.999, 258.938 435.499 C 261.603 441, 264.521 447.795, 265.423 450.600 C 266.324 453.406, 267.945 460.831, 269.024 467.100 C 270.322 474.642, 270.989 483.154, 270.993 492.250 C 270.997 499.813, 270.765 506, 270.478 506 C 270.191 506, 266.446 504.235, 262.156 502.078 C 257.866 499.921, 248.988 495.902, 242.428 493.146 C 235.868 490.390, 223.755 485.838, 215.511 483.031 C 207.267 480.225, 193.317 476.155, 184.511 473.989 C 175.705 471.822, 162.875 469.138, 156 468.025 C 149.125 466.911, 142.113 466, 140.418 466 C 137.745 466, 137.169 466.498, 136.084 469.750 C 135.396 471.813, 134.589 478.061, 134.291 483.635 C 133.891 491.093, 134.187 495.742, 135.409 501.237 C 136.323 505.343, 138.562 511.815, 140.384 515.618 C 143.698 522.533, 143.698 522.533, 139.760 535.516 C 136.225 547.174, 135.878 549.266, 136.364 556 C 136.661 560.125, 137.830 566.493, 138.962 570.150 C 140.093 573.808, 141.670 578.359, 142.466 580.263 C 143.912 583.726, 143.912 583.726, 150.362 582.279 C 155.846 581.049, 157.835 581.032, 163.656 582.166 C 170.500 583.500, 170.500 583.500, 171.330 592.947 C 171.872 599.111, 172.871 603.787, 174.205 606.402 C 175.330 608.606, 178.781 612.928, 181.875 616.007 C 184.969 619.085, 190.088 623.076, 193.250 624.876 C 199 628.147, 199 628.147, 198.360 633.590 C 197.830 638.101, 198.044 639.397, 199.610 641.155 C 200.650 642.322, 202.942 643.886, 204.704 644.632 C 207.827 645.954, 207.893 646.111, 207.324 650.911 C 206.748 655.779, 206.787 655.866, 210.833 658.667 C 214.316 661.079, 214.930 662.034, 214.962 665.095 C 214.985 667.269, 215.723 669.344, 216.829 670.345 C 217.953 671.362, 220.361 671.998, 223.079 671.994 C 225.510 671.991, 229.230 671.509, 231.344 670.922 C 233.458 670.335, 235.319 670, 235.479 670.177 C 235.639 670.355, 235.294 673.409, 234.712 676.964 C 233.948 681.638, 233.974 685.616, 234.807 691.328 C 235.440 695.674, 237.052 701.619, 238.389 704.540 C 239.727 707.460, 242.674 711.860, 244.938 714.317 C 247.203 716.774, 251.517 720.070, 254.525 721.642 C 259.995 724.500, 259.995 724.500, 259.998 744.750 C 260 765, 260 765, 262.372 765 C 264.561 765, 264.993 765.941, 267.996 777.250 C 269.785 783.987, 271.471 792.213, 271.744 795.529 C 272.134 800.291, 271.898 801.840, 270.619 802.901 C 269.729 803.640, 269 805.245, 269 806.467 C 269 807.690, 269.788 809.403, 270.752 810.275 C 271.715 811.147, 273.740 812.331, 275.252 812.906 C 277.779 813.866, 278 814.383, 278 819.323 C 278 822.278, 276.673 843.776, 275.050 867.098 C 273.428 890.419, 271.169 924.125, 270.030 942 C 268.891 959.875, 267.716 976.412, 267.418 978.750 C 266.877 983, 266.877 983, 237.939 983 C 209 983, 209 983, 209 1026.336 C 209 1050.170, 208.702 1091.949, 208.339 1119.178 C 207.678 1168.684, 207.678 1168.684, 369.589 1169.310 C 458.640 1169.655, 631.175 1169.480, 753 1168.922 C 874.825 1168.363, 978.586 1167.667, 983.579 1167.373 C 992.659 1166.839, 992.659 1166.839, 992.317 1093.669 C 992.129 1053.426, 991.705 1011.793, 991.374 1001.150 C 990.774 981.800, 990.774 981.800, 961.949 982.150 C 933.123 982.500, 933.123 982.500, 932.521 975.500 C 932.189 971.650, 929.686 934.829, 926.959 893.676 C 924.232 852.523, 922 817.499, 922 815.846 C 922 813.267, 922.569 812.616, 926 811.268 C 929.108 810.047, 930 809.165, 930 807.313 C 930 806.002, 929.268 803.812, 928.372 802.445 C 927.244 800.723, 926.927 798.818, 927.340 796.231 C 927.667 794.179, 929.367 786.355, 931.117 778.845 C 934.202 765.608, 934.387 765.173, 937.150 764.620 C 940 764.050, 940 764.050, 940 743.226 C 940 722.402, 940 722.402, 943.386 721.177 C 945.248 720.504, 948.768 718.196, 951.209 716.047 C 953.649 713.899, 957.061 709.486, 958.792 706.239 C 960.522 702.993, 962.627 697.692, 963.469 694.458 C 964.311 691.225, 964.980 686.087, 964.956 683.040 C 964.932 679.993, 964.536 675.549, 964.075 673.164 C 963.278 669.040, 963.341 668.860, 965.369 669.470 C 966.541 669.823, 970.255 670.369, 973.623 670.683 C 978.976 671.182, 980.014 670.986, 981.873 669.127 C 983.155 667.845, 984.008 665.709, 984.021 663.750 C 984.039 661.096, 984.793 659.969, 988.131 657.606 C 992.142 654.767, 992.208 654.624, 991.600 650.046 C 990.995 645.483, 991.058 645.343, 994.442 643.729 C 996.345 642.822, 998.649 640.940, 999.561 639.547 C 1000.658 637.872, 1000.998 636.081, 1000.563 634.257 C 1000.201 632.741, 999.696 630.790, 999.440 629.922 C 999.115 628.821, 1001.386 626.756, 1006.945 623.098 C 1011.328 620.213, 1016.523 616.198, 1018.488 614.176 C 1020.453 612.154, 1023.021 608.518, 1024.194 606.096 C 1025.557 603.283, 1026.677 598.165, 1027.294 591.929 C 1028.153 583.250, 1028.496 582.101, 1030.380 581.588 C 1031.546 581.270, 1035.425 580.745, 1039 580.421 C 1043.685 579.996, 1046.730 580.277, 1049.906 581.426 C 1052.329 582.304, 1054.429 582.904, 1054.572 582.761 C 1054.715 582.617, 1055.817 580.025, 1057.020 577 C 1058.224 573.975, 1059.831 569.475, 1060.593 567 C 1061.355 564.525, 1061.983 558.445, 1061.989 553.490 C 1061.998 545.755, 1061.506 543.065, 1058.510 534.490 C 1056.591 528.995, 1055.016 523.559, 1055.010 522.410 C 1055.005 521.260, 1056.307 517.660, 1057.904 514.410 C 1059.501 511.159, 1061.526 505.261, 1062.404 501.303 C 1063.302 497.254, 1064 489.553, 1064 483.702 C 1064 477.980, 1063.491 471.769, 1062.869 469.899 C 1062.246 468.030, 1061.207 465.927, 1060.560 465.227 C 1059.610 464.200, 1056.686 464.447, 1045.441 466.503 C 1037.774 467.905, 1027.225 469.956, 1022 471.061 C 1016.775 472.166, 1007.550 474.382, 1001.500 475.986 C 995.450 477.591, 984.600 480.926, 977.389 483.399 C 970.178 485.872, 959.757 489.899, 954.232 492.349 C 948.706 494.799, 940.959 498.688, 937.016 500.991 C 933.072 503.294, 929.616 504.949, 929.336 504.669 C 929.055 504.389, 928.392 500.660, 927.861 496.384 C 927.218 491.208, 927.248 485.080, 927.951 478.053 C 928.531 472.248, 929.640 463.898, 930.415 459.499 C 931.190 455.100, 933.007 448.350, 934.454 444.500 C 935.900 440.650, 938.704 434.350, 940.683 430.500 C 942.663 426.650, 946.469 420.080, 949.141 415.900 C 951.814 411.720, 954 407.938, 954 407.495 C 954 407.052, 947.813 407.094, 940.250 407.588 C 932.688 408.081, 913.450 408.488, 897.500 408.493 C 874.615 408.498, 863.650 408.018, 845.500 406.213 C 832.850 404.955, 816.200 402.772, 808.500 401.361 C 800.800 399.950, 773.575 393.686, 748 387.442 C 722.425 381.197, 695.425 374.975, 688 373.614 C 680.575 372.254, 667.075 370.222, 658 369.098 C 648.925 367.974, 635.200 366.618, 627.500 366.083 C 619.800 365.549, 606.075 364.901, 597 364.643 C 587.925 364.386, 577.350 364.579, 573.500 365.072 M 1067.355 377.733 C 1066.230 379.255, 1064.565 381.940, 1063.655 383.700 C 1062.745 385.461, 1062 388.690, 1062 390.878 C 1062 394.020, 1062.574 395.306, 1064.734 397.006 C 1066.724 398.571, 1068.289 398.999, 1070.484 398.579 C 1072.143 398.262, 1074.550 396.808, 1075.833 395.349 C 1077.731 393.190, 1078.042 392.026, 1077.500 389.098 C 1077.134 387.119, 1075.635 383.279, 1074.168 380.565 C 1072.700 377.851, 1071.028 375.481, 1070.450 375.299 C 1069.873 375.116, 1068.480 376.212, 1067.355 377.733 M 124.168 381.516 C 122.354 384.549, 120.616 388.590, 120.307 390.496 C 119.931 392.814, 120.284 394.784, 121.372 396.445 C 122.268 397.812, 123.843 399.381, 124.872 399.932 C 126.071 400.573, 127.911 400.599, 129.985 400.004 C 131.767 399.493, 133.835 398.271, 134.580 397.288 C 135.326 396.304, 135.951 394.216, 135.968 392.646 C 135.986 391.077, 134.369 386.689, 132.376 382.896 C 130.383 379.103, 128.463 376, 128.110 376 C 127.756 376, 125.983 378.482, 124.168 381.516 M 968.650 388.154 C 968.292 393.188, 968 399.538, 968 402.265 C 968 406.555, 967.479 407.847, 964.130 411.861 C 962.002 414.413, 958.103 419.843, 955.466 423.928 C 952.830 428.014, 949.848 433.527, 948.840 436.178 C 947.833 438.830, 947.232 441, 947.506 441 C 947.780 441, 955.991 438.541, 965.752 435.535 C 975.514 432.530, 990.700 428.305, 999.500 426.147 C 1008.300 423.989, 1020.320 421.435, 1026.210 420.471 C 1035.758 418.910, 1036.821 418.534, 1036.001 417.003 C 1035.496 416.058, 1031.406 411.827, 1026.912 407.599 C 1022.211 403.176, 1014.742 397.559, 1009.318 394.367 C 1004.135 391.317, 996.655 387.326, 992.697 385.499 C 988.739 383.672, 982.735 381.463, 979.356 380.589 C 975.976 379.715, 972.331 379, 971.255 379 C 969.504 379, 969.232 379.957, 968.650 388.154 M 218.169 382.071 C 215.786 382.540, 209.163 385.156, 203.450 387.885 C 197.737 390.615, 189.111 395.560, 184.281 398.876 C 179.452 402.192, 172.375 408.064, 168.555 411.924 C 164.735 415.785, 161.810 419.124, 162.055 419.345 C 162.300 419.565, 173.750 422.082, 187.500 424.937 C 206.467 428.875, 217.051 431.695, 231.359 436.621 C 241.732 440.193, 250.439 442.894, 250.709 442.624 C 250.979 442.355, 250.693 440.599, 250.073 438.722 C 249.454 436.845, 246.431 431.303, 243.357 426.405 C 240.282 421.507, 235.906 415.279, 233.633 412.564 C 229.500 407.628, 229.500 407.628, 229.152 394.314 C 228.804 381, 228.804 381, 225.652 381.110 C 223.918 381.170, 220.551 381.603, 218.169 382.071 M 1071.743 408.742 C 1065.849 409.047, 1064.778 409.409, 1063.358 411.577 C 1062.462 412.944, 1061.964 414.297, 1062.251 414.585 C 1062.539 414.872, 1067.325 414.794, 1072.887 414.411 C 1078.449 414.028, 1083 413.413, 1083 413.046 C 1083 412.678, 1082.082 411.392, 1080.961 410.189 C 1079.840 408.985, 1078.827 408.088, 1078.711 408.196 C 1078.595 408.304, 1075.459 408.549, 1071.743 408.742 M 116.488 412.321 C 115.695 413.453, 115.189 414.523, 115.365 414.698 C 115.540 414.873, 119.297 415.469, 123.714 416.023 C 128.130 416.577, 132.734 416.664, 133.945 416.216 C 136.089 415.423, 136.099 415.347, 134.323 413.295 C 132.871 411.618, 131.017 411.095, 125.215 410.726 C 118.702 410.311, 117.777 410.480, 116.488 412.321 M 1091.500 422.677 C 1089.300 422.864, 1078.275 423.950, 1067 425.090 C 1055.725 426.230, 1039.757 428.267, 1031.516 429.617 C 1023.275 430.966, 1010.450 433.404, 1003.016 435.033 C 995.582 436.663, 983.425 439.829, 976 442.070 C 968.575 444.311, 957.816 447.908, 952.091 450.065 C 946.366 452.221, 941.558 454.109, 941.406 454.261 C 941.254 454.412, 940.816 456.908, 940.431 459.806 C 939.732 465.076, 939.732 465.076, 945.116 462.939 C 948.077 461.763, 956.800 458.437, 964.500 455.547 C 972.200 452.657, 984.575 448.662, 992 446.669 C 999.425 444.677, 1015.175 441.232, 1027 439.016 C 1038.825 436.799, 1055.394 434.088, 1063.819 432.992 C 1072.245 431.897, 1080.471 431, 1082.101 431 C 1083.951 431, 1087.581 429.311, 1091.771 426.500 C 1095.460 424.025, 1097.808 422.076, 1096.989 422.168 C 1096.170 422.261, 1093.700 422.489, 1091.500 422.677 M 101 424.202 C 101 424.485, 103.719 426.394, 107.042 428.445 C 113.002 432.124, 113.392 432.212, 136.069 435.030 C 148.711 436.601, 163.880 438.841, 169.777 440.009 C 175.675 441.178, 189.743 444.370, 201.041 447.105 C 215.891 450.698, 226.419 453.981, 239.041 458.952 C 248.643 462.733, 256.861 465.483, 257.302 465.062 C 257.743 464.641, 257.566 462.161, 256.909 459.551 C 255.842 455.314, 255.249 454.607, 251.369 452.944 C 248.980 451.920, 241.282 449.237, 234.263 446.982 C 227.243 444.727, 213.821 440.905, 204.436 438.489 C 195.051 436.073, 180.201 432.755, 171.436 431.116 C 162.671 429.477, 149.425 427.424, 142 426.554 C 134.575 425.684, 122.313 424.683, 114.750 424.331 C 107.188 423.978, 101 423.920, 101 424.202 M 1105.605 428.036 C 1102.972 429.705, 1098.496 432.766, 1095.659 434.837 C 1090.647 438.494, 1090.073 438.652, 1075.500 440.372 C 1067.250 441.346, 1055.325 443.030, 1049 444.116 C 1042.675 445.201, 1032.100 447.178, 1025.500 448.510 C 1018.900 449.842, 1006.750 452.783, 998.500 455.045 C 990.250 457.307, 977.875 460.979, 971 463.205 C 964.125 465.430, 954.112 469.449, 948.750 472.135 C 939 477.018, 939 477.018, 939 482.398 C 939 487.777, 939 487.777, 949.925 482.902 C 955.934 480.221, 967.667 475.750, 975.998 472.968 C 984.329 470.186, 998.425 466.148, 1007.323 463.995 C 1016.220 461.843, 1029.680 458.945, 1037.233 457.556 C 1044.786 456.167, 1061.436 453.923, 1074.233 452.570 C 1087.030 451.216, 1100.763 449.801, 1104.750 449.425 C 1112 448.742, 1112 448.742, 1112.006 445.121 C 1112.009 443.129, 1112.301 437.788, 1112.654 433.250 C 1113.187 426.409, 1113.048 425, 1111.844 425 C 1111.045 425, 1108.237 426.366, 1105.605 428.036 M 86 438.833 C 86 450.667, 86 450.667, 101.750 451.908 C 110.412 452.591, 126.500 454.221, 137.500 455.530 C 148.500 456.840, 164.053 459.274, 172.063 460.941 C 180.072 462.608, 195.147 466.478, 205.563 469.542 C 215.978 472.607, 228.435 476.458, 233.244 478.100 C 238.053 479.742, 245.861 482.867, 250.594 485.043 C 255.327 487.219, 259.379 489, 259.600 489 C 259.820 489, 260 486.571, 260 483.601 C 260 478.202, 260 478.202, 250.973 473.540 C 246.008 470.976, 237.345 467.157, 231.723 465.053 C 226.100 462.950, 216.550 459.838, 210.500 458.139 C 204.450 456.440, 194.325 453.939, 188 452.581 C 181.675 451.223, 169.705 448.965, 161.399 447.562 C 153.094 446.159, 140.044 444.327, 132.399 443.489 C 124.755 442.651, 115.926 441.467, 112.779 440.858 C 108.756 440.080, 105.312 438.481, 101.175 435.471 C 97.940 433.116, 93.445 430.247, 91.186 429.095 C 88.928 427.943, 86.837 427, 86.540 427 C 86.243 427, 86 432.325, 86 438.833 M 965.402 923.905 C 963.148 924.929, 961.010 926.531, 960.652 927.465 C 960.293 928.399, 960 929.992, 960 931.005 C 960 932.018, 961.080 934.130, 962.400 935.699 C 964.527 938.226, 964.641 938.771, 963.400 940.467 C 962.630 941.520, 962 943.389, 962 944.619 C 962 945.849, 963.140 947.752, 964.534 948.848 C 966.042 950.035, 966.643 951.102, 966.019 951.488 C 965.443 951.844, 964.125 953.793, 963.091 955.818 C 961.210 959.500, 961.210 959.500, 974.627 959.196 C 988.045 958.891, 988.045 958.891, 984.453 954.509 C 981.317 950.681, 981.011 949.848, 982.038 947.930 C 982.712 946.669, 982.957 944.135, 982.613 941.984 C 982.185 939.302, 982.439 937.880, 983.507 936.994 C 984.328 936.313, 985 934.335, 985 932.600 C 985 930.865, 984.298 928.442, 983.439 927.217 C 982.581 925.991, 980.578 924.316, 978.989 923.494 C 977.400 922.672, 974.614 922.010, 972.800 922.022 C 970.985 922.034, 967.656 922.881, 965.402 923.905 M 222.333 923.695 C 221.141 923.927, 219.003 925.195, 217.583 926.511 C 215.791 928.172, 215.010 929.914, 215.032 932.202 C 215.049 934.016, 215.678 936.311, 216.430 937.302 C 217.289 938.435, 217.607 940.514, 217.286 942.907 C 217.005 945, 217.318 947.726, 217.982 948.967 C 219.058 950.976, 218.798 951.623, 215.595 954.903 C 213.618 956.928, 212 958.903, 212 959.292 C 212 959.681, 218.115 960, 225.589 960 C 239.178 960, 239.178 960, 236.589 956.923 C 235.165 955.231, 234.010 953.544, 234.022 953.173 C 234.034 952.803, 234.924 951.375, 236 950 C 237.076 948.625, 237.966 946.352, 237.978 944.950 C 237.990 943.548, 237.509 941.909, 236.908 941.308 C 236.119 940.519, 236.454 939.107, 238.118 936.216 C 240.086 932.796, 240.247 931.839, 239.230 929.606 C 238.576 928.170, 236.569 926.098, 234.770 925.001 C 232.949 923.891, 229.949 923.066, 228 923.140 C 226.075 923.213, 223.525 923.463, 222.333 923.695 M 957 969.460 C 957 971.850, 957.232 971.927, 965.250 972.210 C 969.788 972.369, 977.663 972.357, 982.750 972.181 C 990.828 971.903, 992 971.638, 992 970.085 C 992 968.515, 990.581 968.231, 979.843 967.654 C 973.157 967.294, 965.282 967, 962.343 967 C 957.334 967, 957 967.154, 957 969.460 M 209 968.894 C 209 969.412, 208.727 970.548, 208.393 971.418 C 207.854 972.824, 209.755 973, 225.463 973 C 243.139 973, 243.139 973, 242.820 970.750 C 242.504 968.532, 242.264 968.496, 225.750 968.226 C 215.739 968.062, 209 968.331, 209 968.894 M 341.870 1179.749 C 212.430 1179.967, 189.063 1180.219, 188.077 1181.408 C 187.437 1182.178, 187.193 1183.920, 187.534 1185.279 C 187.875 1186.637, 189.357 1188.330, 190.827 1189.040 C 192.992 1190.085, 237.864 1190.275, 427 1190.040 C 555.425 1189.881, 739.025 1189.451, 835 1189.087 C 930.975 1188.722, 1010.311 1188.046, 1011.303 1187.584 C 1012.650 1186.957, 1013.029 1185.831, 1012.803 1183.123 C 1012.500 1179.500, 1012.500 1179.500, 753.500 1179.496 C 611.050 1179.494, 425.816 1179.607, 341.870 1179.749 M 548.323 1253.542 C 544.570 1255.491, 534.525 1261.782, 526 1267.524 C 517.475 1273.265, 509.425 1278.808, 508.112 1279.840 C 505.724 1281.717, 505.724 1281.717, 514.833 1293.779 C 523.942 1305.842, 523.942 1305.842, 511.687 1322.671 C 504.946 1331.927, 486.816 1357.050, 471.398 1378.500 C 455.980 1399.950, 442.584 1418.696, 441.628 1420.157 C 439.892 1422.814, 439.892 1422.814, 446.622 1432.157 C 450.324 1437.296, 454.425 1442.968, 455.736 1444.762 C 458.119 1448.023, 458.119 1448.023, 484.174 1411.262 C 498.504 1391.043, 512.506 1371.575, 515.290 1368 C 518.074 1364.425, 525.298 1355.313, 531.345 1347.750 C 537.392 1340.188, 542.654 1334, 543.040 1334 C 543.425 1334, 559.436 1357.913, 578.620 1387.140 C 597.804 1416.367, 614.400 1441.788, 615.500 1443.630 C 616.600 1445.473, 617.950 1446.985, 618.500 1446.990 C 619.050 1446.995, 625.575 1443.123, 633 1438.384 C 640.425 1433.646, 652.013 1426.405, 658.750 1422.293 C 665.487 1418.182, 671 1414.591, 671 1414.313 C 671 1414.036, 669.998 1412.389, 668.772 1410.654 C 667.547 1408.919, 654.291 1390.909, 639.315 1370.630 C 621.147 1346.031, 603.001 1319.832, 584.792 1291.910 C 569.781 1268.892, 556.970 1250.046, 556.323 1250.030 C 555.675 1250.013, 552.075 1251.594, 548.323 1253.542 M 915.835 1254.543 C 911.070 1255.286, 903.645 1257.077, 899.335 1258.523 C 895.026 1259.970, 888.350 1262.807, 884.500 1264.827 C 880.650 1266.847, 875.632 1270.446, 873.349 1272.825 C 871.066 1275.204, 867.793 1279.788, 866.075 1283.012 C 864.357 1286.235, 862.036 1292.388, 860.918 1296.686 C 859.402 1302.515, 859.037 1306.152, 859.482 1311 C 859.810 1314.575, 860.814 1321.100, 861.712 1325.500 C 862.834 1331, 865.822 1338.812, 871.273 1350.500 C 875.635 1359.850, 880.513 1370.788, 882.114 1374.807 C 883.715 1378.826, 885.919 1385.342, 887.012 1389.287 C 888.106 1393.232, 889 1399.074, 889 1402.270 C 889 1406.040, 888.321 1409.410, 887.066 1411.871 C 886.002 1413.956, 883.640 1416.798, 881.816 1418.187 C 879.992 1419.575, 876.619 1421.669, 874.321 1422.840 C 872.023 1424.010, 867.148 1425.788, 863.488 1426.791 C 856.835 1428.614, 856.835 1428.614, 861.472 1434.307 C 864.023 1437.438, 866.720 1440, 867.466 1440 C 868.212 1440, 873.700 1438.870, 879.661 1437.488 C 885.623 1436.107, 893.425 1433.781, 897 1432.320 C 900.575 1430.859, 907.041 1427.907, 911.368 1425.761 C 915.696 1423.615, 921.419 1419.817, 924.087 1417.322 C 926.755 1414.827, 930.706 1409.562, 932.868 1405.623 C 935.427 1400.961, 937.042 1396.508, 937.498 1392.865 C 937.943 1389.301, 937.600 1383.136, 936.553 1375.885 C 935.076 1365.662, 933.748 1361.541, 923.538 1335.500 C 915.074 1313.912, 911.866 1304.471, 910.987 1298.559 C 910.337 1294.192, 910.076 1288.927, 910.406 1286.860 C 910.737 1284.793, 911.896 1281.596, 912.982 1279.755 C 914.068 1277.914, 916.218 1275.476, 917.759 1274.336 C 919.300 1273.197, 922.348 1271.359, 924.531 1270.252 C 926.714 1269.144, 931.097 1267.425, 934.270 1266.430 C 937.444 1265.436, 939.919 1264.266, 939.770 1263.831 C 939.622 1263.396, 937.709 1260.781, 935.520 1258.020 C 932.039 1253.630, 931.098 1253.012, 928.020 1253.097 C 926.084 1253.150, 920.601 1253.801, 915.835 1254.543 M 687.145 1261.462 C 682.137 1266.146, 682.137 1266.146, 682.607 1280.823 C 682.865 1288.895, 683.519 1307.713, 684.058 1322.639 C 684.699 1340.351, 684.701 1358.762, 684.063 1375.639 C 683.525 1389.863, 682.862 1408.291, 682.589 1416.591 C 682.093 1431.682, 682.093 1431.682, 688.120 1435.841 C 694.147 1440, 694.147 1440, 721.653 1440 C 749.159 1440, 749.159 1440, 748.585 1437.250 C 748.269 1435.737, 747.132 1425.275, 746.057 1414 C 744.982 1402.725, 743.801 1389.563, 743.433 1384.750 C 743.052 1379.772, 743.149 1376, 743.658 1376 C 744.150 1376, 748.141 1375.558, 752.526 1375.018 C 756.912 1374.478, 767.700 1373.377, 776.500 1372.570 C 786.142 1371.687, 794.686 1370.340, 798 1369.181 C 801.025 1368.124, 806.425 1366.023, 810 1364.513 C 813.575 1363.004, 819.425 1359.876, 823 1357.562 C 826.575 1355.249, 830.883 1351.971, 832.574 1350.277 C 834.265 1348.584, 837.295 1344.065, 839.307 1340.236 C 841.319 1336.406, 843.653 1330.308, 844.494 1326.683 C 845.335 1323.058, 846.066 1317.203, 846.119 1313.672 C 846.172 1310.141, 845.453 1304.631, 844.522 1301.428 C 843.591 1298.225, 841.559 1293.088, 840.006 1290.012 C 838.454 1286.937, 835.105 1282.108, 832.564 1279.282 C 830.023 1276.456, 825.092 1272.343, 821.606 1270.141 C 818.120 1267.939, 812.620 1265.037, 809.384 1263.692 C 806.148 1262.347, 799.450 1260.545, 794.500 1259.688 C 787.716 1258.514, 774.007 1257.964, 738.826 1257.454 C 692.153 1256.777, 692.153 1256.777, 687.145 1261.462 M 263.908 1260.750 C 262.552 1262.263, 260.628 1264.480, 259.632 1265.677 C 257.890 1267.773, 257.886 1269.163, 259.535 1303.133 C 261.007 1333.467, 261.089 1343.323, 260.118 1373.456 C 259.497 1392.730, 258.992 1413.694, 258.995 1420.042 C 259 1431.584, 259 1431.584, 263.250 1435.715 C 267.500 1439.847, 267.500 1439.847, 321 1439.062 C 374.500 1438.277, 374.500 1438.277, 388.500 1434.671 C 396.874 1432.514, 405.767 1429.449, 410.629 1427.044 C 415.100 1424.832, 421.049 1420.963, 423.849 1418.446 C 427.062 1415.557, 430.112 1411.486, 432.122 1407.405 C 434.562 1402.448, 435.416 1399.193, 435.785 1393.451 C 436.059 1389.173, 435.709 1383.292, 434.967 1379.731 C 434.134 1375.733, 432.304 1371.474, 429.862 1367.846 C 427.768 1364.736, 424.355 1360.776, 422.278 1359.046 C 420.200 1357.315, 414.225 1353.751, 409 1351.125 C 403.775 1348.499, 396.350 1345.548, 392.500 1344.569 C 388.650 1343.589, 384.825 1342.557, 384 1342.275 C 383.175 1341.993, 385.650 1340.767, 389.500 1339.550 C 393.350 1338.332, 399.385 1335.868, 402.911 1334.073 C 406.437 1332.277, 411.721 1328.539, 414.654 1325.766 C 417.586 1322.993, 421.090 1318.389, 422.440 1315.535 C 424.296 1311.612, 424.952 1308.409, 425.130 1302.406 C 425.347 1295.088, 425.103 1293.974, 422.015 1288.180 C 420.102 1284.591, 416.333 1279.763, 413.228 1276.925 C 410.237 1274.192, 404.125 1270.184, 399.645 1268.018 C 395.165 1265.853, 387.675 1263.142, 383 1261.995 C 377.901 1260.743, 368.299 1259.542, 359 1258.992 C 350.475 1258.488, 326.147 1258.059, 304.937 1258.038 C 266.374 1258, 266.374 1258, 263.908 1260.750 M 317 1291.712 C 317 1302.145, 316.702 1317.575, 316.337 1326 C 315.674 1341.317, 315.674 1341.317, 322.978 1340.639 C 326.995 1340.265, 333.481 1339.239, 337.391 1338.359 C 341.301 1337.478, 347.247 1335.520, 350.605 1334.007 C 353.963 1332.495, 358.549 1329.596, 360.796 1327.565 C 363.044 1325.534, 365.809 1321.959, 366.942 1319.621 C 368.424 1316.559, 369 1313.392, 369 1308.309 C 369 1303.036, 368.394 1299.879, 366.607 1295.837 C 365.256 1292.782, 362.370 1288.760, 359.980 1286.601 C 357.652 1284.497, 352.949 1281.467, 349.529 1279.867 C 346.110 1278.267, 340.204 1276.318, 336.406 1275.537 C 332.608 1274.756, 326.688 1273.808, 323.250 1273.429 C 317 1272.742, 317 1272.742, 317 1291.712 M 741.663 1298.555 C 741.298 1312.728, 741 1332.568, 741 1342.643 C 741 1360.962, 741 1360.962, 745.750 1360.395 C 748.362 1360.084, 753.381 1358.939, 756.902 1357.852 C 760.423 1356.765, 766.008 1354.510, 769.313 1352.842 C 772.618 1351.174, 777.722 1347.538, 780.656 1344.764 C 783.610 1341.971, 787.220 1337.215, 788.745 1334.109 C 791.234 1329.040, 791.490 1327.515, 791.405 1318.263 C 791.330 1309.980, 790.853 1306.849, 788.906 1301.855 C 787.475 1298.185, 784.570 1293.557, 781.738 1290.438 C 779.119 1287.553, 774.728 1283.751, 771.982 1281.988 C 769.235 1280.226, 763.670 1277.730, 759.615 1276.442 C 755.560 1275.155, 750.011 1273.805, 747.284 1273.443 C 742.326 1272.786, 742.326 1272.786, 741.663 1298.555 M 317.998 1365.606 C 317.996 1371.598, 317.700 1386.964, 317.338 1399.753 C 316.680 1423.006, 316.680 1423.006, 321.590 1422.457 C 324.291 1422.155, 330.100 1421.458, 334.500 1420.908 C 338.900 1420.359, 346.031 1419.015, 350.346 1417.923 C 354.661 1416.830, 360.382 1414.827, 363.059 1413.470 C 365.736 1412.114, 369.487 1409.633, 371.395 1407.958 C 373.303 1406.283, 375.795 1402.990, 376.932 1400.640 C 378.350 1397.711, 379 1394.394, 379 1390.085 C 379 1386.458, 378.339 1382.409, 377.436 1380.506 C 376.576 1378.694, 374.337 1375.417, 372.461 1373.226 C 370.585 1371.034, 366.865 1367.839, 364.194 1366.125 C 361.524 1364.411, 356.675 1362.084, 353.419 1360.955 C 350.164 1359.825, 344.497 1358.261, 340.826 1357.480 C 337.155 1356.699, 330.518 1355.756, 326.076 1355.386 C 318 1354.712, 318 1354.712, 317.998 1365.606" stroke="none" fill="#000000" fill-rule="evenodd"/><path d="M 426.476 571.250 C 426.871 638.487, 427.561 730.175, 428.009 775 C 428.823 856.500, 428.823 856.500, 431.415 868.733 C 432.841 875.461, 435.796 886.412, 437.982 893.069 C 440.168 899.726, 444.240 909.395, 447.030 914.555 C 449.820 919.716, 454.821 928.114, 458.142 933.219 C 462.012 939.166, 468.550 946.932, 476.341 954.839 C 483.511 962.115, 491.987 969.544, 497 972.945 C 501.675 976.117, 510.393 981.530, 516.372 984.974 C 522.725 988.633, 532.494 993.094, 539.872 995.706 C 546.822 998.167, 560.023 1001.711, 569.230 1003.588 C 580.648 1005.917, 588.704 1007, 594.602 1007 C 599.355 1007, 608.026 1006.301, 613.872 1005.447 C 619.717 1004.593, 629.607 1002.760, 635.848 1001.375 C 642.090 999.989, 652.440 997.052, 658.848 994.848 C 665.257 992.644, 674.126 989.146, 678.558 987.075 C 682.990 985.004, 690.727 980.546, 695.751 977.167 C 700.775 973.789, 708.788 967.532, 713.559 963.263 C 718.329 958.993, 725.637 951.450, 729.800 946.500 C 733.962 941.550, 739.781 933.798, 742.732 929.273 C 745.682 924.748, 750.510 915.973, 753.459 909.773 C 756.409 903.573, 760.013 894.900, 761.468 890.500 C 762.923 886.100, 764.979 878.810, 766.036 874.301 C 767.093 869.791, 768.643 860.881, 769.479 854.500 C 770.796 844.456, 771 816.518, 771 646.449 C 771 450, 771 450, 759.137 450 C 747.274 450, 747.274 450, 746.640 499.250 C 746.291 526.337, 745.537 615.100, 744.964 696.500 C 744.362 782.042, 743.495 848.298, 742.910 853.500 C 742.354 858.450, 740.767 867, 739.383 872.500 C 738 878, 735.305 886.426, 733.394 891.225 C 731.483 896.024, 727.304 904.349, 724.109 909.725 C 720.913 915.101, 715.569 923.100, 712.232 927.500 C 708.896 931.900, 702.867 938.254, 698.833 941.621 C 694.800 944.987, 687.952 950.284, 683.616 953.391 C 679.280 956.498, 671.920 961.119, 667.259 963.660 C 662.599 966.200, 654.165 969.777, 648.518 971.608 C 642.871 973.439, 632.625 976.077, 625.749 977.469 C 618.873 978.861, 611.055 980.096, 608.374 980.214 C 605.693 980.332, 597.650 980.080, 590.500 979.654 C 583.350 979.228, 573 977.945, 567.500 976.802 C 562 975.659, 553.225 973.183, 548 971.301 C 542.775 969.418, 535.125 966.064, 531 963.847 C 526.875 961.631, 520.350 957.725, 516.500 955.168 C 512.650 952.611, 506.508 947.945, 502.850 944.799 C 499.193 941.653, 491.363 932.874, 485.450 925.289 C 477.479 915.066, 473.322 908.622, 469.371 900.370 C 466.440 894.248, 462.712 885.248, 461.086 880.370 C 459.460 875.491, 457.435 867.675, 456.586 863 C 455.332 856.092, 454.763 834.924, 453.548 750 C 452.726 692.525, 451.549 601.850, 450.933 548.500 C 450.316 495.150, 449.643 450.938, 449.437 450.250 C 449.166 449.343, 445.866 449, 437.410 449 C 425.757 449, 425.757 449, 426.476 571.250" stroke="none" fill="#faaa2d" fill-rule="evenodd"/></svg>